<svg version="1.1" xmlns="http://www.w3.org/2000/svg" viewBox="0 0 775.000000 775.000000">
<g transform="translate(0.000000,775.000000) scale(0.100000,-0.100000)">
<path d="M3841 7618 c-54 -217 -128 -399 -228 -563 -27 -44 -110 -166 -185
-271 -237 -332 -314 -465 -354 -614 -40 -146 -14 -416 56 -598 47 -122 110
-209 286 -393 183 -191 269 -302 379 -491 44 -75 82 -137 85 -137 3 0 41 62
85 137 110 189 196 300 379 491 86 91 179 197 206 237 98 147 152 348 153 564
1 242 -52 358 -371 804 -75 105 -158 227 -185 271 -100 164 -174 346 -228 563
-19 72 -36 132 -39 132 -3 0 -20 -60 -39 -132z"/>
<path d="M1649 4700 c-173 -28 -306 -99 -683 -368 -105 -75 -227 -158 -271
-185 -164 -100 -346 -174 -562 -228 -73 -19 -133 -36 -133 -39 0 -3 60 -20
133 -39 216 -54 398 -128 562 -228 44 -27 166 -110 271 -185 332 -237 465
-314 614 -354 146 -40 416 -14 598 56 122 47 209 110 393 286 191 183 302 269
491 379 75 44 137 82 137 85 0 3 -62 41 -137 85 -189 110 -300 196 -491 379
-184 176 -271 239 -393 286 -151 58 -397 91 -529 70z"/>
<path d="M5861 4690 c-192 -27 -330 -74 -445 -150 -40 -27 -146 -120 -237
-206 -191 -183 -302 -269 -491 -379 -75 -44 -137 -82 -137 -85 0 -3 62 -41
137 -85 189 -110 300 -196 491 -379 91 -86 197 -179 237 -206 147 -98 348
-152 564 -153 242 -1 358 52 804 371 105 75 227 158 271 185 164 100 346 174
563 228 72 19 132 36 132 39 0 3 -60 20 -132 39 -217 54 -399 128 -563 228
-44 27 -166 110 -271 185 -332 237 -469 316 -611 353 -78 19 -227 27 -312 15z"/>
<path d="M3765 4440 c-210 -45 -366 -185 -437 -390 -30 -87 -32 -257 -4 -340
64 -190 196 -322 386 -386 40 -14 84 -19 165 -19 81 0 125 5 165 19 190 64
322 196 386 386 26 77 26 253 0 330 -32 94 -79 172 -141 236 -108 109 -231
164 -385 169 -52 2 -113 0 -135 -5z"/>
<path d="M3785 3062 c-110 -189 -196 -300 -379 -491 -86 -91 -179 -197 -206
-237 -98 -147 -152 -348 -153 -564 -1 -242 52 -358 371 -804 75 -105 158 -227
185 -271 100 -164 174 -346 228 -562 19 -73 36 -133 39 -133 3 0 20 60 39 133
54 216 128 398 228 562 27 44 110 166 185 271 237 332 314 465 354 614 40 146
14 416 -56 598 -47 122 -110 209 -286 393 -183 191 -269 302 -379 491 -44 75
-82 137 -85 137 -3 0 -41 -62 -85 -137z"/>
</g>
</svg>
