<svg version="1.1" xmlns="http://www.w3.org/2000/svg" viewBox="0 0 752.000000 589.000000">
<g transform="translate(0.000000,589.000000) scale(0.100000,-0.100000)">
<path d="M3612 5499 c-84 -215 -152 -392 -150 -394 2 -1 35 1 73 6 98 11 353
11 454 -1 47 -5 86 -8 88 -6 5 5 -300 786 -307 786 -3 0 -74 -176 -158 -391z"/>
<path d="M3525 4809 c-49 -5 -149 -20 -222 -34 -969 -186 -1729 -944 -1917
-1913 -128 -657 20 -1330 413 -1879 36 -51 70 -91 75 -90 5 2 123 203 263 447
l255 443 -251 251 -251 251 600 600 599 599 292 651 c160 357 294 658 296 668
6 19 -3 20 -152 6z"/>
<path d="M3830 4812 c0 -5 131 -301 290 -658 l291 -649 610 -610 609 -610
-240 -240 c-132 -132 -239 -245 -238 -252 2 -6 118 -208 258 -447 l255 -436
23 28 c58 68 170 250 236 383 117 236 193 476 233 739 25 162 24 520 -1 685
-39 262 -110 485 -231 730 -371 752 -1107 1257 -1945 1334 -139 13 -150 13
-150 3z"/>
<path d="M3598 3234 c-508 -92 -851 -576 -763 -1078 70 -400 371 -701 771
-771 447 -78 894 189 1043 622 146 429 -40 907 -440 1127 -182 100 -408 137
-611 100z m265 -499 c175 -46 299 -181 330 -360 48 -282 -216 -546 -498 -498
-241 41 -407 267 -368 499 44 255 293 422 536 359z"/>
<path d="M423 2621 c-233 -91 -423 -168 -423 -171 0 -3 108 -47 239 -98 131
-51 322 -126 424 -166 l186 -73 -6 196 c-5 176 5 382 24 459 3 15 1 22 -8 21
-8 -1 -204 -76 -436 -168z"/>
<path d="M6653 2767 c18 -70 29 -282 24 -458 l-5 -196 185 73 c102 40 293 115
424 166 131 51 239 95 239 98 0 5 -850 340 -864 340 -5 0 -6 -10 -3 -23z"/>
<path d="M4217 862 l-457 -457 -449 449 -449 449 -38 -67 c-22 -37 -190 -329
-374 -649 l-335 -582 833 -3 c458 -1 1206 -1 1660 0 l827 3 -375 652 c-207
359 -378 654 -381 657 -3 3 -211 -200 -462 -452z"/>
</g>
</svg>
