<svg version="1.1" xmlns="http://www.w3.org/2000/svg" viewBox="0 0 350.000000 379.000000">
<g transform="translate(-100.000000,485.000000) scale(0.160000,-0.160000)">
<path d="M1560 2973 c-12 -32 -24 -67 -26 -78 -9 -39 -17 -111 -18 -153 l-1
-44 -70 -22 c-38 -13 -98 -37 -132 -54 l-63 -32 -57 47 c-55 44 -186 113 -215
113 -7 0 -56 -43 -108 -95 l-94 -95 26 -52 c15 -29 56 -88 92 -131 l66 -77
-26 -53 c-15 -28 -39 -86 -54 -127 l-28 -75 -83 -6 c-87 -7 -206 -31 -240 -49
-17 -10 -19 -22 -19 -139 0 -91 4 -132 13 -139 30 -26 129 -54 223 -64 l104
-12 25 -76 c14 -41 39 -99 55 -129 l30 -54 -49 -52 c-56 -59 -128 -166 -138
-203 -5 -20 9 -39 88 -118 51 -52 99 -94 105 -94 29 0 156 75 212 125 l61 56
83 -40 c46 -22 102 -45 124 -51 l42 -13 7 -76 c7 -82 18 -138 42 -214 l15 -47
138 0 138 0 26 66 c17 42 31 104 38 169 l12 102 48 12 c26 7 84 30 128 52 l81
39 57 -47 c54 -44 185 -113 214 -113 7 0 56 43 108 95 l94 95 -26 52 c-15 29
-56 88 -92 131 l-66 77 31 63 c18 34 42 91 54 127 l22 65 84 6 c86 7 206 31
240 49 17 10 19 22 19 139 0 91 -4 132 -13 139 -30 26 -129 54 -223 64 l-104
12 -25 76 c-14 41 -39 99 -55 129 l-30 54 49 52 c56 59 128 166 138 203 5 20
-9 39 -88 118 -51 52 -99 94 -105 94 -29 0 -156 -75 -212 -126 l-63 -57 -50
28 c-27 15 -85 39 -127 55 l-77 28 -2 53 c-4 83 -16 155 -40 232 l-15 47 -138
0 -139 0 -21 -57z m255 -618 c203 -43 357 -197 400 -400 8 -38 15 -88 15 -110
0 -194 -128 -398 -302 -480 -306 -145 -664 30 -733 360 -18 88 -18 132 0 220
51 243 261 417 510 424 22 0 72 -6 110 -14z"/>
</g>
</svg>
