<svg version="1.1" xmlns="http://www.w3.org/2000/svg" viewBox="0 0 438.000000 609.000000">
<g transform="translate(0.000000,609.000000) scale(0.100000,-0.100000)">
<path d="M2012 6074 c-377 -63 -700 -339 -825 -705 -32 -92 -57 -239 -57 -334
l0 -71 93 -12 c93 -11 219 -45 290 -76 l37 -16 -7 42 c-14 78 -8 239 11 303
68 228 231 391 462 461 82 26 266 26 349 0 230 -70 393 -233 461 -462 19 -63
25 -225 11 -302 l-7 -42 37 16 c71 31 197 65 290 76 l93 12 0 71 c0 510 -383
957 -891 1040 -113 18 -235 18 -347 -1z"/>
<path d="M882 4794 c-377 -63 -700 -339 -825 -705 -188 -547 112 -1153 664
-1342 85 -30 238 -57 317 -57 l52 0 0 199 0 198 -77 6 c-281 22 -505 206 -589
482 -26 83 -26 267 0 350 70 230 231 391 462 461 82 26 266 26 349 0 228 -69
383 -223 461 -456 17 -51 19 -112 24 -824 l5 -770 189 -83 c104 -46 193 -83
198 -83 4 0 8 372 8 828 0 899 -2 931 -57 1091 -87 256 -271 470 -513 599
-199 106 -441 144 -668 106z"/>
<path d="M3142 4794 c-378 -63 -700 -338 -825 -705 -55 -160 -57 -192 -57
-1091 0 -456 4 -828 8 -828 5 0 94 37 198 83 l189 83 5 770 c5 711 7 773 24
824 77 232 233 387 462 456 82 26 266 26 349 0 230 -70 391 -231 461 -462 26
-82 26 -266 0 -349 -84 -276 -308 -460 -588 -482 l-78 -6 0 -198 0 -199 53 0
c78 0 231 27 316 57 490 168 788 663 706 1172 -35 215 -127 398 -279 558 -245
259 -594 376 -944 317z"/>
<path d="M284 2752 c-10 -69 3 -359 20 -420 19 -70 57 -133 105 -174 77 -66
350 -196 928 -444 379 -162 393 -169 470 -234 111 -93 191 -234 249 -433 20
-67 41 -167 49 -222 12 -92 13 -61 14 390 1 520 -3 575 -48 663 -43 83 -98
118 -392 246 -712 311 -1241 562 -1336 635 l-52 40 -7 -47z"/>
<path d="M4035 2758 c-92 -72 -626 -325 -1334 -634 -294 -128 -349 -163 -392
-246 -48 -93 -49 -117 -48 -1028 1 -753 3 -843 14 -755 8 55 29 155 49 222 58
199 138 340 249 433 77 65 91 72 470 234 590 253 854 380 931 447 49 44 89
113 107 189 15 62 19 328 6 402 l-8 47 -52 -40 c-96 -73 -449 -243 -1154 -555
-170 -75 -326 -143 -348 -151 -22 -7 -57 -25 -77 -39 -21 -13 -38 -20 -38 -15
0 25 106 163 161 210 79 66 92 73 472 235 578 248 851 378 928 444 48 41 86
104 105 174 17 63 31 388 18 434 l-9 30 -50 -38z"/>
</g>
</svg>
