<svg version="1.0" xmlns="http://www.w3.org/2000/svg" viewBox="0 0 350.000000 505.000000">
<g transform="translate(0.000000,505.000000) scale(0.100000,-0.100000)">
<path d="M502 2867 l3 -1713 37 -76 c45 -91 103 -147 196 -191 l67 -32 323 -3
322 -3 0 150 0 151 -285 0 c-199 0 -292 4 -310 12 -55 25 -55 20 -55 623 l0
555 340 0 340 0 0 150 0 150 -340 0 -340 0 0 595 0 595 340 0 340 0 0 150 0
150 -340 0 -340 0 0 225 0 225 -150 0 -150 0 2 -1713z"/>
<path d="M1790 3980 l0 -600 600 0 600 0 0 600 0 600 -600 0 -600 0 0 -600z"/>
<path d="M1790 2490 l0 -600 600 0 600 0 0 600 0 600 -600 0 -600 0 0 -600z"/>
<path d="M1790 1000 l0 -600 600 0 600 0 0 600 0 600 -600 0 -600 0 0 -600z"/>
</g>
</svg>
