<svg version="1.1" xmlns="http://www.w3.org/2000/svg" viewBox="0 0 350.000000 351.000000">
<g transform="translate(0.000000,351.000000) scale(0.100000,-0.100000)">
<path d="M1235 3504 c-209 -24 -444 -113 -631 -240 -107 -73 -285 -251 -358
-358 -153 -225 -232 -464 -243 -731 -10 -265 34 -479 140 -690 157 -310 423
-556 732 -678 186 -74 312 -97 525 -97 299 0 547 74 783 233 16 11 72 -43 494
-467 l476 -478 173 173 174 174 -477 477 -477 477 35 53 c158 240 228 508 216
823 -11 267 -90 506 -243 731 -73 107 -251 285 -358 358 -155 105 -333 181
-519 222 -71 15 -359 27 -442 18z m391 -508 c255 -71 479 -254 588 -481 78
-163 90 -218 91 -400 0 -162 -5 -199 -46 -313 -104 -290 -359 -516 -664 -587
-84 -19 -308 -20 -385 -1 -185 46 -325 124 -454 252 -100 101 -167 206 -216
339 -39 109 -45 149 -45 310 0 145 3 168 27 241 63 194 164 346 306 462 110
89 284 170 417 192 71 12 320 3 381 -14z"/>
</g>
</svg>
