<svg version="1.1" xmlns="http://www.w3.org/2000/svg" viewBox="0 0 350.000000 350.000000">
<g transform="translate(0.000000,350.000000) scale(0.100000,-0.100000)">
<path d="M916 1598 c-13 -637 18 -897 125 -1057 125 -187 304 -251 709 -251
260 0 398 22 527 85 127 62 220 188 262 356 40 156 45 253 44 737 -1 255 -4
466 -6 469 -3 2 -61 -5 -129 -17 -78 -14 -188 -24 -300 -27 l-177 -6 -33 -51
c-96 -148 -280 -148 -376 0 l-33 51 -182 6 c-111 4 -225 14 -292 26 -60 11
-115 21 -121 21 -8 0 -13 -102 -18 -342z"/>
</g>
</svg>
