<svg version="1.1" xmlns="http://www.w3.org/2000/svg" viewBox="0 0 132 108">
	<path d="M35.53 35 A19 19 0 0 1 54.42 52 H64 V42.42 A19 19 0 0 1 64 4.63 V0 H0 V52 H16.64 A19 19 0 0 1 35.53 35 Z"></path>
	<path d="M47 84.47 A19 19 0 0 1 64 65.58 V56 H54.42 a19 19 0 0 1 -37.78 0 H0 v52 H64 v-4.64A19 19 0 0 1 47 84.47 Z"></path>
	<path d="M115.36 56 a19 19 0 0 1 -37.78 0 H68 v9.58 a19 19 0 0 1 0 37.78 V108 h64 V56 Z"></path>
	<path d="M68 0 V4.63 a19 19 0 0 1 0 37.79 V52 h9.58 a19 19 0 0 1 37.78 0 H132 V0 Z"></path>
</svg>