<svg version="1.1" xmlns="http://www.w3.org/2000/svg" viewBox="0 0 256.000000 256.000000">
<g transform="translate(0.000000,256.000000) scale(0.100000,-0.100000)">
<path d="M17 2553 c-4 -3 -7 -233 -7 -510 l0 -504 308 3 c335 3 344 5 391 64
38 48 43 91 47 364 3 146 9 283 15 305 14 53 54 104 93 120 17 7 61 16 99 20
l67 7 0 69 0 69 -503 0 c-277 0 -507 -3 -510 -7z"/>
<path d="M1527 2553 c-4 -3 -7 -34 -7 -69 l0 -62 68 -7 c79 -8 121 -24 152
-56 51 -54 54 -74 60 -384 5 -284 5 -291 30 -340 44 -87 53 -89 408 -93 l302
-3 -2 508 -3 508 -501 3 c-275 1 -504 -1 -507 -5z"/>
<path d="M12 513 l3 -508 508 -3 507 -2 0 69 0 69 -67 7 c-38 4 -82 13 -99 20
-39 16 -79 67 -93 120 -6 22 -12 159 -15 305 -4 273 -9 316 -47 364 -47 59
-56 61 -392 64 l-307 3 2 -508z"/>
<path d="M1915 1002 c-100 -34 -115 -91 -115 -426 0 -266 -8 -318 -56 -370
-35 -37 -74 -52 -157 -61 l-68 -7 3 -67 3 -66 505 0 505 0 3 508 2 507 -287 0
c-245 -1 -296 -3 -338 -18z"/>
</g>
</svg>
