<svg xmlns="http://www.w3.org/2000/svg" viewBox="6.74202 0 18.52 32">
	<path d="M 11.5 32 C 9.9 30.6 8 29.1 7.5 28.1 C 6.1 25.7 6.7 22.9 8.8 21 L 18.9 12.4 C 19.9 11.5 19.8 9.6 18.8 8.6 L 16 6.1 L 13.2 8.6 C 12.2 9.6 12 11.3 13.2 12.4 L 14.3 13.4 L 10.8 16.5 L 8.6 14.7 C 6.2 12.5 6.2 8.5 8.6 6.4 L 16 0 L 23.4 6.4 C 25.8 8.5 25.8 11.5 23.4 14.7 L 11.5 25 C 9 27.1 10 30.3 11.5 32 Z M 20.5 32 C 22.9 29.7 22.4 26.4 20.4 24.9 L 17.6 22.5 L 21.2 19.3 L 23.1 20.9 C 26.2 23.4 25.6 27.5 23.6 29.3 Z"/>
</svg>