<svg viewBox="0 0 293 460" version="1.1" xmlns="http://www.w3.org/2000/svg">
<path d="M130.501,275.366L130.501,193.268C130.501,186.001 128.24,181.192 125.244,178.031C122.201,174.82 117.47,173.284 112.001,173.284L52.726,173.284C45.449,173.284 38.381,175.805 33.208,180.923C28.785,185.297 26.828,192.376 26.828,201.111L26.828,244.446L104.026,307.65L104.026,459.977L0,391.316L0,140.653C0,71.25 37.958,0 145.57,0C253.182,0 292.523,71.25 292.523,140.653L292.523,391.316L188.496,459.977L188.496,307.65L265.695,244.446L265.695,201.111C265.695,192.376 263.737,185.297 259.315,180.923C254.141,175.805 247.074,173.284 239.797,173.284L180.522,173.284C175.052,173.284 170.322,174.82 167.279,178.031C164.283,181.192 162.022,186.001 162.022,193.268L162.022,275.366L130.501,275.366Z"/>
</svg>