<svg viewBox="0 0 584 748" version="1.1" xmlns="http://www.w3.org/2000/svg">
<path d="M29.715,747.862L200.692,747.862C200.692,747.862 211.783,732.623 225.227,732.623C238.671,732.623 248.504,747.862 248.504,747.862L583.182,747.862C583.182,747.862 583.21,659.754 583.182,649.409C583.162,642.188 567.745,631.725 557.033,628.92C523.796,620.217 395.81,602.167 383.759,597.194C372.2,592.425 282.263,511.606 282.263,511.606L225.227,507.03L269.631,490.212C269.631,490.212 339.344,51.888 339.722,45.951C340.152,39.205 296.976,2.892 291.282,1.285C285.985,-0.21 51.384,-0.633 45.306,1.285C38.655,3.384 -0.763,39.132 0.011,45.951C0.746,52.421 62.587,501.602 63.701,519.659C64.745,536.591 29.715,592.324 29.715,628.92L29.715,747.862Z"/>
</svg>