<svg viewBox="0 0 335 428" version="1.1" xmlns="http://www.w3.org/2000/svg">
<path d="M88.161,427.958C88.161,427.958 42.555,262.758 26.13,197.31C0.101,108.178 -9.677,96.811 11.666,90.586C34.839,88.111 62.644,186.624 71.906,178.748C81.169,170.871 78.262,68.899 79.971,36.947C80.662,24.047 86.695,16.377 96.256,16.066C108.021,15.684 112.73,22.472 115.014,36.947C119.79,67.218 124.265,105.707 127.943,135.021C129.534,147.708 135.57,170.212 140.79,170.212C146.009,170.212 149.819,155.638 150.401,149.151C153.023,119.887 155.931,62.303 162.29,18.39C164.258,5.267 176.775,-0.642 184.369,0.055C194.095,1.107 201.634,10.385 201.541,21.179C201.277,49.149 195.555,172.483 204.516,180.437C208.56,184.027 218.716,161.787 225.538,141.174C234.919,112.827 236.553,96.313 244.341,73.19C248.461,60.959 258.016,50.921 267.622,53.374C278.347,56.113 281.779,72.435 279.551,85.168C272.972,122.756 260.273,222.528 253.864,239.706C249.629,251.059 240.688,268.526 240.688,268.526C240.688,268.526 256.756,265.913 260.63,264.168C272.255,258.932 282.64,245.758 296.638,234.922C306.404,227.362 318.256,224.681 325.99,229.493C337.998,236.964 336.453,248.543 328.593,260.401C321.768,270.696 282.025,313.199 253.864,358.154C232.303,392.574 220.877,427.958 220.877,427.958L88.161,427.958Z"/>
</svg>