<svg viewBox="0 0 340 361" version="1.1" xmlns="http://www.w3.org/2000/svg">
<path d="M169.668,67.032C214.096,67.032 240.132,0 240.132,0C240.132,0 265.864,3.205 291.975,14.182C315.184,23.939 339.336,39.367 339.336,39.367C339.336,39.367 271.977,66.922 270.888,117.529C269.671,174.056 320.187,184.987 321.271,191.968C322.419,199.365 303.398,270.306 291.975,293.858C281.907,314.615 264.076,351.229 264.076,351.229C264.076,351.229 207.523,360.138 169.668,360.138C131.813,360.138 75.26,350.505 75.26,350.505C75.26,350.505 57.429,314.615 47.362,293.858C35.938,270.306 16.917,199.365 18.065,191.968C19.149,184.987 69.665,174.056 68.448,117.529C67.359,66.922 0,39.367 0,39.367C0,39.367 23.975,23.446 47.362,14.182C75.069,3.205 99.205,0 99.205,0C99.205,0 125.24,67.032 169.668,67.032Z"/>
</svg>