<svg viewBox="0 0 343 357" version="1.1" xmlns="http://www.w3.org/2000/svg">
<path d="M166.355,82.33C249.131,82.33 342.513,61.353 342.513,61.353L342.513,0C342.513,0 255.94,19.118 166.355,19.118C76.771,19.118 265.741,19.118 176.157,19.118C86.573,19.118 0,0 0,0L0,61.353C0,61.353 93.381,82.33 176.157,82.33C258.933,82.33 83.58,82.33 166.355,82.33Z"/>
<path d="M64.557,198.845C64.557,198.845 65.747,221.267 41.323,221.267C19.432,221.267 18.812,198.845 18.812,198.845L18.812,82.33C18.812,82.33 30.867,87.115 64.557,90.469"/>
<path d="M83.888,93.464L83.888,266.258C83.888,266.258 83.458,292.71 106.394,292.254C129.33,291.797 129.715,267.003 129.715,267.003L129.715,98.454"/>
<path d="M277.395,198.845C277.395,198.845 276.205,221.267 300.629,221.267C322.52,221.267 323.14,198.845 323.14,198.845L323.14,82.33C323.14,82.33 311.085,87.115 277.395,90.469"/>
<path d="M258.064,93.464L258.064,266.258C258.064,266.258 258.494,292.71 235.558,292.254C212.622,291.797 212.237,267.003 212.237,267.003L212.237,98.454"/>
<path d="M170.818,356.718C145.345,356.718 149.249,331.748 149.249,331.748L149.249,99.838C156.118,100.058 163.827,100.18 171.325,100.18C246.308,100.18 95.856,100.18 170.839,100.18C178.337,100.18 185.624,100.058 192.667,99.838L192.667,331.748C192.667,331.748 196.818,356.718 171.345,356.718C145.872,356.718 196.292,356.718 170.818,356.718Z"/>
</svg>