<svg viewBox="0 0 90.496 25.696" version="1.1" xmlns="http://www.w3.org/2000/svg">
<path d="M85.088,7.68L90.496,7.68L90.496,10.752L85.152,10.752L85.152,10.336L84.128,10.336L84.128,10.752L83.008,10.752L83.008,10.304L66.656,10.304L66.656,12.096L67.424,12.096L67.776,12.448L67.776,12.896L67.424,13.248L66.496,13.248L65.728,13.632L64.192,13.76L63.872,13.984L43.552,13.984L42.336,14.08L41.152,14.624L40.064,15.424L39.712,15.808L35.968,23.968L35.328,24.64L34.528,25.184L33.408,25.632L32.032,25.696L30.848,25.568L29.152,25.184L23.2,23.424L22.528,23.36L21.6,23.424L21.6,24.896L20.832,24.896L20.832,23.36L20.32,23.36L20.32,24.192L20.064,24.512L18.048,24.512L17.792,24.256L17.568,24.48L12.736,24.48L12.48,24.768L11.36,24.768L11.072,24.448L10.048,24.448L10.048,17.92L9.376,18.56C9.12,18.283 8.971,18.144 8.928,18.144L8.928,16.832L3.584,16.832L3.584,18.688L3.36,19.04L2.912,19.36L0.288,20L0,19.84L0,17.12L0.192,13.632L0.224,10.72L0.16,7.808L0,6.176L0.256,5.248L0.736,5.088L1.728,5.088L2.016,5.376L3.328,5.376L3.68,5.856L9.984,3.104L28.448,3.104L28.448,2.56L30.592,2.56L31.232,1.92L34.752,1.92L35.072,1.344L35.2,0.8L35.2,0.224L35.36,0L36.48,0L36.736,0.224L36.736,0.704L36.832,1.248L37.696,2.496L40.576,2.496L40.768,2.272L40.992,2.272L41.824,3.104L43.616,3.104L44,2.72L50.88,2.72L51.392,3.264L65.568,3.264L66.496,3.616L66.496,4.672L67.712,4.672L68.224,5.216L68.224,5.536L67.744,6.048L66.912,6.048L66.912,6.88L66.592,7.2L66.592,8.032L82.976,8.032L82.976,7.68L84.16,7.68L84.16,8.224L85.088,8.224L85.088,7.68ZM27.072,14.048L27.072,13.248L26.848,12.864L26.432,12.48L25.792,12.256L24.16,12.256L23.648,12.352L23.296,12.704L23.072,13.28L22.944,14.112L23.168,14.912L23.648,15.584L24.32,16L25.216,16L26.048,15.68L26.848,14.848L27.072,14.048ZM38.976,14.336L39.2,13.856L39.04,13.408L38.656,13.088L38.144,12.864L33.952,12.864L33.76,13.632L33.696,14.208L33.792,14.688L33.984,15.168L34.208,15.424L34.016,15.712L33.696,15.392L33.28,14.688L33.024,13.728L32.928,12.864L32.608,12.864L31.84,13.6L31.84,14.976L32.032,15.424L32.32,15.68L32.608,15.904L32.448,16.64L31.488,16.768L30.912,17.088L30.464,17.728L30.24,18.4L30.144,19.168L29.984,19.552L29.504,20L29.088,20.64L28.704,21.504L28.256,22.656L28.192,22.848L28.288,23.04L30.592,23.744L32.224,24.192L33.184,24.192L33.92,23.872L34.752,23.232L35.168,22.432L38.528,15.232L38.976,14.336Z" />
</svg>
