<svg viewBox="0 0 74.912 26.592" version="1.1" xmlns="http://www.w3.org/2000/svg">
<path d="M42.912,9.984L41.504,9.984L41.504,9.408L40.736,9.408L40.736,9.728L40.416,9.728L40.416,10.496L42.848,10.496L43.648,10.912L73.664,10.912L74.4,10.976L74.528,11.136L74.528,11.264L74.4,11.424L73.312,12.096C72.8,12.352 72.48,12.725 72.352,13.216L71.872,17.216L71.36,17.216L71.168,16.992L70.656,15.168C70.464,14.677 70.187,14.357 69.824,14.208C69.675,14.144 69.253,14.096 68.56,14.064C67.867,14.032 67.211,14.016 66.592,14.016L57.92,14.016L51.68,14.144L46.208,14.304L42.56,14.496L40.864,14.72L39.936,15.008L39.392,15.264L39.04,15.584L38.72,16.16L38.272,17.216L37.76,18.72L37.376,20.064L37.184,21.12L37.088,22.016L37.152,22.56L37.248,22.816L38.432,24.032L38.368,24.64L38.208,24.864L34.88,22.272L34.016,21.664C33.568,21.387 33.173,21.248 32.832,21.248C31.979,21.205 31.253,21.333 30.656,21.632L29.792,22.144L29.888,23.776L29.856,23.904L29.792,24.032C29.109,24.565 28.48,25.035 27.904,25.44L26.144,26.592C24.139,26.464 22.08,26.197 19.968,25.792L16.128,25.056C15.744,24.864 15.477,24.619 15.328,24.32L15.168,23.424L15.68,23.104L15.712,21.824L16.448,21.568L16.416,21.408L15.712,21.152C15.712,20.213 16.053,19.243 16.736,18.24C16.928,17.941 17.237,17.515 17.664,16.96C18.091,16.405 18.379,15.989 18.528,15.712C18.677,15.435 18.72,15.221 18.656,15.072C18.528,14.752 18.245,14.475 17.808,14.24C17.371,14.005 16.8,13.877 16.096,13.856C15.627,13.835 15.024,13.819 14.288,13.808C13.552,13.797 12.651,13.781 11.584,13.76C10.517,13.739 9.653,13.717 8.992,13.696L4.256,13.568L3.296,19.296L2.976,20.032L2.624,20.224L1.728,20.224L0.736,19.104L0.608,13.408L0,10.048L0.256,7.232C0.363,6.869 0.693,6.635 1.248,6.528L2.816,6.272C7.061,6.101 10.581,5.835 13.376,5.472L24.288,3.808L22.368,2.816L23.136,2.4L24.16,2.336L24.288,2.272L24.384,2.144L24.384,0.576L24.544,0L25.696,0L25.984,0.608L26.432,1.76L27.36,2.08L27.52,2.368L29.376,2.656L32.512,2.24L32.832,2.08L33.152,1.76L33.376,1.472L33.472,1.6L33.472,2.976L33.408,3.232C34.859,3.317 36.427,3.52 38.112,3.84C38.752,3.968 39.44,4.112 40.176,4.272C40.912,4.432 41.504,4.555 41.952,4.64C42.4,4.725 42.805,4.789 43.168,4.832C43.531,4.875 44.219,4.912 45.232,4.944C46.245,4.976 47.168,4.992 48,4.992L49.248,4.992L50.048,5.728L50.048,6.272L73.696,6.272L74.144,6.496L74.144,6.688L73.92,6.688L73.792,7.2L43.68,7.2L42.912,7.68L40.416,7.68L40.416,8.448L40.736,8.448L40.736,8.736L41.504,8.736L41.504,8.192L42.912,8.192L43.712,7.712L73.728,7.712L74.016,8.256L74.912,8.256L74.912,9.92L74.048,9.92L73.696,10.464L43.808,10.464L42.912,9.984ZM31.328,16.864C31.733,16.651 31.936,16.299 31.936,15.808C31.936,15.573 31.84,15.333 31.648,15.088C31.456,14.843 31.275,14.656 31.104,14.528L30.816,14.304C30.283,13.771 29.451,13.504 28.32,13.504C27.595,13.504 26.741,13.483 25.76,13.44C25.803,13.845 25.856,14.133 25.92,14.304C25.984,14.496 26.08,14.699 26.208,14.912C26.336,15.125 26.453,15.296 26.56,15.424L26.72,15.584L26.4,15.968C25.824,15.669 25.365,15.264 25.024,14.752C24.768,14.411 24.555,13.941 24.384,13.344C24.064,13.408 23.84,13.536 23.712,13.728C23.563,13.92 23.429,14.192 23.312,14.544C23.195,14.896 23.147,15.147 23.168,15.296C23.168,15.339 23.2,15.44 23.264,15.6C23.328,15.76 23.376,15.904 23.408,16.032C23.44,16.16 23.451,16.288 23.44,16.416C23.429,16.544 23.371,16.629 23.264,16.672C22.112,17.333 21.472,17.899 21.344,18.368C21.28,18.603 21.259,18.853 21.28,19.12C21.301,19.387 21.248,19.541 21.12,19.584C20.693,20.139 20.48,20.64 20.48,21.088L25.248,20.992L25.536,20.992L31.328,16.864Z" />
</svg>
