<svg viewBox="0 0.075 73.252 23.885" version="1.1" xmlns="http://www.w3.org/2000/svg">
<path d="M27.299,0.075C26.966,0.234 23.414,4.046 23.305,4.108C23.201,4.168 22.297,4.106 22.297,4.106C22.297,4.106 21.923,3.559 21.638,3.563C21.363,3.567 21.017,4.104 21.017,4.104L15.433,4.095C15.433,4.095 15.084,3.551 14.808,3.551C14.534,3.552 14.192,4.093 14.192,4.093L6.508,4.081C6.508,4.081 6.126,3.548 5.877,3.545C5.622,3.541 5.24,4.111 5.24,4.111L0.523,4.073C0.385,4.072 0.252,4.126 0.153,4.224C0.055,4.321 0,4.454 0,4.592L0,14.943C-0,15.305 0.228,15.63 0.569,15.752L14.86,20.896C15.544,21.142 16.312,20.85 16.661,20.213L21.057,12.175L21.812,11.971L22.563,13.11L23.026,12.985L23.138,11.199L25.516,10.971L25.979,22.842C26.001,23.421 26.484,23.885 27.064,23.885L35.133,23.885L35.848,13.26L73.02,13.26L70.411,9.332L70.169,8.18L46.541,8.18L46.029,5.891L70.223,5.891L70.404,4.821L73.252,0.075C73.252,0.075 27.653,-0.094 27.299,0.075L27.299,0.075ZM52.234,2.149L67.727,2.149L66.176,3.933L50.975,3.933L52.234,2.149ZM39.32,2.944C41.41,2.944 43.149,4.447 43.515,6.432C43.706,6.582 44.629,7.21 44.629,7.21C44.629,7.21 43.714,7.841 43.516,7.982C43.153,9.969 41.412,11.476 39.32,11.476C36.964,11.476 35.055,9.566 35.055,7.21C35.055,4.854 36.964,2.944 39.32,2.944L39.32,2.944ZM54.328,10.099L66.176,10.099L67.514,11.747L53.049,11.747L54.328,10.099ZM5.885,11.089L16.906,11.089L14.171,16.381C14.029,16.656 13.699,16.782 13.409,16.673L6.009,13.87C5.934,13.842 5.885,13.77 5.885,13.69L5.885,11.089Z" />
</svg>
