<svg viewBox="0 0 82.368 30.656" version="1.1" xmlns="http://www.w3.org/2000/svg">
<path d="M81.152,6.208L82.368,7.616L82.368,15.04L81.184,16.384L78.88,16.384L75.712,18.592L74.528,18.592L74.528,19.232L73.472,19.232L73.216,18.944L72.416,19.84L68.48,19.84L68.48,21.024L69.44,22.112L69.984,22.112L74.848,27.744L74.848,28.288L75.584,29.12L74.272,30.656L73.312,29.568L72.896,29.568L68,23.904L68,23.552L67.072,22.464L65.984,22.464L65.152,22.112L65.152,21.728L64.352,21.728L64.352,20.288L65.12,20.288L65.12,19.968L65.536,19.968L65.536,19.68L62.944,19.68L61.952,21.312L58.88,21.312L58.88,19.904L58.336,19.904L58.112,20.736L57.696,21.888L56.928,22.784L55.872,23.328L54.272,23.456L53.952,22.176L52.416,22.176L50.016,26.112L50.016,27.712L44.416,27.712L33.856,20.896L33.856,17.44L33.376,16.864L31.52,16.864L31.008,17.472L29.568,17.472L29.568,16.704L25.984,15.36L25.088,15.36L24.352,14.368L7.36,14.368L7.36,15.392L5.248,19.104L2.016,19.104L1.632,18.656L1.632,16.256L0.512,16.256L0,15.616L0,7.52L0.608,6.816L6.24,6.816L7.712,8.16L10.208,8.192L10.656,8.512L24.192,8.448L29.984,7.84L29.984,6.656L29.248,6.08L25.408,5.44L24.704,5.152L24.704,4.768L30.208,4.672L33.504,4.672L42.368,6.88L42.368,7.712L42.656,7.84L42.656,6.944L43.04,6.592L44.64,6.592L44.64,5.344L44.288,4.928L42.496,4.928L42.496,4.352L42.912,4.352L42.912,3.744L42.496,3.744L42.496,3.296L43.264,3.296L44.384,2.016L50.016,2.016L50.336,2.368L52.064,0.576L52.608,0.16L53.28,0L66.432,0L66.624,0.32L67.36,3.04L70.976,3.04L70.976,4.864L67.2,4.864L65.408,6.912L65.824,7.424L66.688,6.432L68.416,6.432L68.864,6.944L76.288,6.944L76.928,6.208L81.152,6.208ZM6.624,15.328L6.624,14.912L5.792,16.192L2.4,16.256L2.4,18.112L2.56,18.304L4.768,18.304L6.624,15.328ZM49.92,21.248L49.92,20L49.856,19.584L49.632,19.232L49.44,19.072L49.248,18.976L46.848,18.976L46.464,19.2L46.208,19.584L46.016,20.064L46.016,23.52L47.968,23.52L49.92,21.248ZM51.744,2.88L54.048,2.912L53.088,1.76L52.736,1.76L51.744,2.88ZM56.576,20.512L56.576,20.064L56.512,19.488L54.208,19.488L54.208,20.576L54.336,21.088L54.496,21.248L55.712,21.248L56.128,21.12L56.416,20.864L56.576,20.512ZM63.456,2.88L64.8,1.056L54.08,1.024L53.824,1.344L55.136,2.88L63.456,2.88Z" />
</svg>
