<svg viewBox="0 0 112.474 12.508" version="1.1" xmlns="http://www.w3.org/2000/svg">
<path d="M27.674,6.428L27.77,6.428L27.77,6.46L27.674,6.46L27.674,6.428ZM22.298,6.78L22.49,6.78L22.49,6.844L22.298,6.844L22.298,6.78ZM74.554,2.492L112.474,2.492C112.25,2.748 104.538,11.196 98.586,11.58C98.266,11.58 97.946,11.612 97.594,11.644C97.21,11.708 96.858,11.612 96.474,11.676C96.122,11.708 95.802,11.676 95.482,11.676L68.698,11.676C68.57,11.772 68.474,11.868 68.378,11.932C68.314,11.996 68.218,12.06 68.154,12.124L67.13,12.124C67.034,12.188 66.842,12.284 66.65,12.412C66.554,12.028 66.33,11.9 66.106,11.772C65.37,11.42 64.666,11.26 63.898,11.292C63.354,11.324 62.874,11.612 62.49,12.124C62.394,12.252 62.33,12.412 62.266,12.508C61.85,12.604 61.594,12.284 61.274,12.22C59.77,12.828 57.658,12.572 57.53,9.884C55.962,9.884 55.834,9.884 54.49,9.852C54.458,9.468 54.458,7.772 54.458,7.388C54.458,6.812 54.33,6.652 53.914,6.62C53.53,6.62 53.146,6.588 52.762,6.588C52.41,6.588 52.026,6.62 51.674,6.62C51.354,6.652 51.034,6.588 50.714,6.62C50.394,6.652 50.138,6.652 49.818,6.62C49.338,6.588 48.826,6.62 48.314,6.652C48.026,6.652 47.738,6.556 47.45,6.62C47.162,6.684 46.842,6.62 46.554,6.62C46.266,6.652 46.01,6.556 45.722,6.62C45.434,6.652 45.146,6.652 44.858,6.62C44.41,6.588 43.93,6.62 43.45,6.62C43.13,6.652 42.778,6.588 42.458,6.62C42.138,6.652 41.786,6.62 41.466,6.62C41.21,6.652 40.954,6.556 40.698,6.62C40.442,6.684 40.186,6.62 39.93,6.62C39.61,6.652 39.258,6.588 38.938,6.62C38.618,6.652 38.33,6.652 38.01,6.62C37.498,6.588 36.954,6.684 36.474,6.62C36.25,6.748 36.09,6.876 35.898,6.972L35.802,6.748L35.418,6.716C35.354,6.588 35.322,6.428 35.226,6.3L28.858,6.3C28.858,6.588 28.858,6.876 28.826,7.196C28.314,7.356 27.77,7.356 27.354,7.964C27.13,7.804 26.906,7.676 26.778,7.292C26.362,6.876 25.85,7.036 25.338,6.844C25.402,6.94 25.434,7.036 25.466,7.132C25.69,7.58 25.69,8.188 25.53,8.668C25.53,8.7 25.498,8.732 25.498,8.764C25.37,9.148 25.178,9.404 24.858,9.532C24.41,9.724 23.93,9.532 23.642,8.924C23.546,8.7 23.418,8.444 23.29,8.188L18.266,8.188C18.234,8.028 18.202,7.9 18.17,7.74L22.234,7.74C22.298,7.58 22.33,7.452 22.394,7.292C22.17,7.164 21.946,7.228 21.754,7.228C21.53,7.196 21.338,7.132 21.114,7.1L20.954,6.876L6.49,6.876C6.202,7.036 6.01,7.132 5.786,7.228C5.594,7.356 5.37,7.228 5.178,7.26C4.954,7.324 4.73,7.42 4.602,7.26L4.058,7.324L3.93,7.484C3.706,7.388 3.482,7.452 3.258,7.484C3.162,7.484 3.034,7.58 2.938,7.676C2.842,7.772 2.778,7.804 2.746,8.06C2.714,8.188 2.746,8.284 2.746,8.412L2.97,8.444C2.97,8.636 2.97,8.924 2.938,9.116C2.906,9.084 2.81,9.116 2.746,9.084L2.746,10.076L1.21,10.076C1.21,9.98 1.178,9.884 1.178,9.756C1.178,9.468 1.114,9.468 1.018,9.212C0.57,8.188 0.25,7.484 0.09,6.332C-0.006,5.468 -0.038,5.18 0.058,4.316C0.186,3.292 0.378,2.588 0.698,1.66C0.73,1.532 1.21,0.668 1.21,0.028C1.69,-0.036 2.202,0.028 2.682,0.028C2.714,0.38 2.65,0.7 2.682,0.924L2.938,0.988L2.97,1.5L2.746,1.532C2.714,2.012 2.874,2.428 3.322,2.556L3.546,2.46L3.674,2.62L4.026,2.556L4.25,2.78L4.474,2.652L4.73,2.812L5.082,2.588L5.626,2.78C5.978,2.588 6.298,2.748 6.65,3.036L25.018,3.036C25.626,3.036 26.202,3.132 26.778,2.684L26.842,2.428C27.002,2.3 27.162,2.172 27.322,2.012C27.77,2.524 28.282,2.716 28.858,2.716L28.858,3.772L29.178,3.772C31.066,3.772 32.922,3.772 34.81,3.74C34.97,3.74 35.13,3.708 35.29,3.676C35.322,3.516 35.354,3.42 35.386,3.292L35.802,3.292L35.898,3.068C36.09,2.908 36.218,3.164 36.346,3.292C36.666,3.292 36.986,3.26 37.306,3.292C37.594,3.324 37.914,3.292 38.202,3.292L39.034,3.292C39.418,3.292 39.77,3.324 40.154,3.292C40.442,3.26 40.762,3.324 41.05,3.292C41.402,3.26 41.786,3.292 42.17,3.292L42.874,3.292C43.226,3.292 43.578,3.26 43.898,3.292C44.218,3.324 44.506,3.292 44.826,3.292C45.146,3.292 45.466,3.26 45.818,3.292C46.074,3.324 46.33,3.292 46.586,3.292L47.61,3.292C47.93,3.292 48.25,3.324 48.602,3.292C48.922,3.26 49.242,3.324 49.562,3.292C49.85,3.26 50.17,3.292 50.49,3.292L54.298,3.292C54.362,3.1 54.458,2.268 54.554,2.044C54.586,2.044 54.682,2.012 54.746,2.012C54.81,1.948 54.842,1.884 54.874,1.788L60.186,1.788C62.362,1.788 64.538,1.788 66.714,1.82C67.098,1.82 67.61,1.756 67.77,1.596C68.026,1.308 68.218,1.148 68.442,1.02L69.274,1.02C69.274,1.404 69.338,1.404 69.178,1.788C69.594,2.044 70.234,1.916 70.81,2.044C70.842,2.14 70.874,2.268 70.906,2.364L72.41,2.364C72.634,2.364 73.306,1.692 73.434,1.404C73.53,1.244 73.594,1.084 73.658,0.924L74.554,0.924C74.65,1.564 74.49,1.852 74.554,2.492ZM22.65,7.356C22.714,7.324 22.778,7.324 22.842,7.324L22.842,7.26L22.65,7.26L22.65,7.356ZM24.538,9.084C24.954,9.084 25.242,8.636 25.242,8.092C25.242,7.516 24.954,7.068 24.538,7.068C24.154,7.068 23.834,7.516 23.834,8.092C23.834,8.636 24.154,9.084 24.538,9.084ZM28.026,6.94L28.154,6.94C28.154,6.94 28.154,6.908 28.122,6.908L28.026,6.908L28.026,6.94ZM60.954,11.388C61.37,11.1 61.562,10.556 61.53,9.884L58.362,9.884C58.426,10.524 58.522,10.876 58.682,11.164C58.97,11.644 60.186,11.964 60.954,11.388Z" />
</svg>
