<svg viewBox="0 0 115.104 24.032" version="1.1" xmlns="http://www.w3.org/2000/svg">
<path d="M109.184,8.992L115.104,8.992L115.104,12.32L109.216,12.32L109.216,13.312L91.008,13.312L91.008,12.736L89.344,12.736L89.344,11.808L72.224,11.808L72.224,12.32L66.976,12.32L66.976,11.968L65.632,12.48L65.632,13.696L66.976,13.696L66.976,13.248L70.816,13.248L70.816,15.296L67.072,15.296L67.072,14.912L65.696,14.912L65.632,15.904L65.408,16.192L65.024,16.32L41.696,16.32L41.408,16L37.088,16L37.088,22.56L36.736,22.944L30.208,22.944L29.952,22.688L29.024,22.688L28.864,22.496L28.864,18.176L27.392,17.152L27.2,16.864L27.2,13.952L25.984,13.952L25.824,14.4L25.728,15.04L25.792,15.84L25.984,16.48L26.08,16.704L25.824,16.864L25.472,16.384L25.056,15.424L24.896,14.432L24.864,13.952L24.608,13.952L24.256,14.4L24.032,14.944L23.936,15.52L23.936,16.064L24.096,16.544L24.512,16.896L24.768,17.024L24.608,17.6L23.936,17.664L23.456,17.888L23.168,18.304L22.944,18.784L22.848,19.264L22.848,19.552L22.752,20.032L22.304,20.416L22.048,20.96L21.76,21.888L21.312,23.136L21.472,23.648L21.024,24.032L3.04,20.352L2.912,20.64L2.592,20.896L0.608,21.6L0.288,21.536L0.128,21.28L0,20.832L0.064,20.032L0.256,16.928L0.384,13.696L0.32,10.016L0.16,8.256L0.256,7.36L0.384,7.072L0.992,6.976L1.824,6.976L2.08,7.232L2.944,7.232L3.168,7.552L3.264,7.904L3.264,8.448L18.368,8.448L19.264,7.456L21.472,7.456L21.472,6.496L21.728,6.24L22.496,6.24L22.656,6.08L25.44,6.08L25.92,5.728L29.44,5.728L29.44,4.704L21.472,4.704L21.472,4.16L18.88,4.16L18.784,4.096L21.6,0.48L23.712,0.48L24.512,0L45.888,0L46.336,0.704L46.336,2.848L48.96,4.096L48.96,4.8L46.496,4.8L44.96,6.464L46.88,6.464L48.608,7.424L63.456,7.424L63.456,8.896L65.568,8.896L65.568,9.472L66.816,9.472L66.816,8.928L72.224,8.928L72.224,9.472L89.312,9.472L89.312,8.672L91.168,8.672L91.168,8.096L109.184,8.096L109.184,8.992ZM20.512,14.528L20.512,13.92L10.528,13.92L15.264,18.752L16.128,19.392L16.704,19.68L17.248,19.68L17.696,19.552L17.984,19.264L17.984,18.656L20.512,14.528ZM42.496,6.432L42.496,4.8L35.52,4.8L35.52,5.824L35.584,5.856L37.216,5.856L38.4,6.432L42.496,6.432Z" />
</svg>
