<svg viewBox="0 0 90.752 25.12" version="1.1" xmlns="http://www.w3.org/2000/svg">
<path d="M90.144,1.6L90.752,1.6L90.752,4.416L90.24,4.416L90.24,7.264L89.824,7.264L89.824,10.816L89.408,10.816L89.408,11.968L85.76,11.968L85.44,12.32L81.536,12.32L81.376,13.152L81.184,13.568L80.832,13.728L80.192,13.728L79.552,13.6L59.168,13.6L58.432,13.472L58.304,13.088L58.592,12.672L59.008,12.032L37.12,12.032L36.928,12.512L36.864,13.024L36.928,13.504L36.992,13.92L37.216,14.336L36.96,14.592L36.448,14.112L36.064,13.344L35.84,12.544L35.808,11.936L34.88,11.936L34.688,12.512L34.496,13.184L34.4,13.856L34.432,14.368L34.88,14.752L35.392,15.008L35.552,15.264L35.52,15.616L35.296,15.968L34.816,16.128L34.08,16.256L33.728,16.448L33.44,16.736L33.12,17.344L33.024,17.824L33.024,18.4L32.832,18.912L32.576,19.36L32.16,19.904L30.688,23.552L31.168,24.064L31.168,24.512L30.592,25.12L25.792,25.12L24.96,24.896L24.928,24.16L25.056,23.872L24.832,23.008L25.088,21.056L25.792,18.848L26.688,16.96L27.744,15.392L28.416,14.72L28.832,14.24L29.056,13.568L28.992,13.056L28.608,12.384L27.968,11.904L27.328,11.648L26.432,11.488L21.792,11.488L21.472,11.328L20.544,10.464L20.544,10.112L20.288,10.112L19.968,10.272L19.36,10.528L2.848,14.208L2.496,14.464L0.608,14.912L0.224,14.816L0.096,14.432L0,13.28L0.288,10.304L0.384,7.328L0.256,4.16L0.192,2.496L0.288,1.888L0.544,1.536L0.928,1.376L2.304,1.312L3.104,1.312L3.488,1.728L3.872,1.312L15.904,1.312L16.736,1.408L17.664,1.696L18.688,2.112L19.424,2.592L19.968,2.88L20.288,3.232L20.512,2.976L23.2,2.976L23.392,2.88L23.648,2.72L25.856,0.832L26.784,0.576L27.488,0.576L28.032,0L39.168,0L39.488,0.32L40.224,1.088L50.816,1.088L51.232,0.672L71.968,0.672L72.48,1.216L77.504,1.216L78.08,0.608L88,0.608L88,0L88.96,0L88.96,1.024L89.6,1.024L90.144,1.6Z" />
</svg>
