<svg viewBox="0 0 53.952 26.816" version="1.1" xmlns="http://www.w3.org/2000/svg">
<path d="M53.952,5.824L51.232,5.824L51.232,6.88L52.416,6.88L52.736,7.2L52.736,10.72L51.968,10.976L28.768,12.064L27.648,10.976L26.752,10.976L24.992,12.8L24.576,12.8L24.576,13.152L21.408,16.256L20.032,17.408L18.912,17.92L17.216,18.368L15.68,18.464L14.496,18.336L13.376,17.984L12.32,17.408L11.456,17.216L10.592,17.28L10.08,17.44L9.728,17.888L9.504,18.752L9.504,19.616L8.8,20.16L8.416,20.8L7.584,24.128L7.936,25.792L8.544,26.24L8.544,26.656L7.904,26.816L0.096,24.544L0,23.808L0.096,22.336L0.384,20.544L1.152,18.112L2.112,15.936L3.36,14.016L5.088,12.064L5.728,11.264L5.92,10.656L5.92,9.856L5.504,9.12L4.704,8.288L3.52,7.616L4.256,6.88L5.92,6.88L6.304,6.464L8.032,6.048L8.512,5.504L9.024,4.832L9.408,3.904L9.6,2.88L10.112,2.24L10.592,2.24L10.784,0.928L10.88,0L20.288,0L21.536,1.28L46.72,1.28L47.36,0.64L52.96,0.64L53.952,1.664L53.952,5.824ZM21.088,14.88L21.088,13.824L20.864,13.056L20.384,12.576L19.744,12.352L18.08,12.288L15.808,12.288L15.168,13.152L15.04,13.856L15.104,14.368L15.328,14.752L15.648,15.136L15.36,15.392L14.88,14.944L14.464,14.24L14.176,13.216L14.048,12.672L13.76,12.704L13.152,13.248L12.672,13.952L12.48,14.912L12.48,15.904L12.928,16.8L13.696,17.408L15.008,17.792L16.096,17.792L17.376,17.664L18.656,17.312L19.52,16.864L20.32,16.256L20.832,15.648L21.088,14.88Z" />
</svg>
