<svg viewBox="0 0 80.16 22.784" version="1.1" xmlns="http://www.w3.org/2000/svg">
<path d="M74.528,5.632L80.16,5.632L80.16,8.544L74.528,8.544L74.528,9.088L64.128,9.088L64.128,8.544L63.424,8.544L63.424,9.824L63.04,10.24L62.4,10.24L62.4,11.424L63.936,11.424L63.936,10.976L68.192,10.976L68.192,12.992L63.936,12.992L63.936,12.64L62.368,12.64L62.368,13.024L61.504,13.856L59.008,13.856L57.92,14.272L43.072,14.272L41.76,13.856L41.44,13.856L41.44,22.368L40.96,22.784L32.032,22.784L31.456,22.208L31.456,20.192L30.592,21.056L30.592,21.728L30.176,22.496L28.896,22.08L28.416,22.496L16.192,19.296L15.808,18.912L16.768,18.368L16.8,17.504L17.088,16.128L17.6,14.912L18.752,13.152L19.712,12.064L20.16,11.712L20.032,11.392L20.032,10.56L18.208,9.728L7.84,9.728L3.04,12.512L2.848,13.856L2.592,14.176L0.416,14.752L0,14.624L0.224,12.256L0.352,8.512L0.224,5.568L0.096,3.712L0.128,3.008L0.352,2.656L1.6,2.656L1.792,2.848L2.656,2.848L2.976,3.2L2.976,3.872L17.824,3.872L18.112,4.192L20.576,3.584L21.12,3.072L21.792,2.624L22.4,2.496L22.496,2.592L22.496,3.04L23.488,3.04L23.488,1.664L24.256,1.152L24.512,1.152L24.512,0L25.184,0L25.184,1.152L25.792,1.152L27.488,2.144L27.488,3.04L33.856,3.04L35.968,3.84L44.416,3.84L44.416,3.104L44.672,2.816L49.696,2.816L51.84,3.904L56.608,3.904L57.632,2.944L62.016,2.944L62.176,3.104L62.176,4.544L63.2,4.544L63.424,4.768L63.424,5.6L64.128,5.6L64.128,5.056L74.528,5.056L74.528,5.632ZM27.168,19.36L29.952,12.384L29.856,11.872L29.6,11.52L29.056,11.392L25.216,11.392L25.088,12.096L25.248,13.056L25.504,13.472L25.344,13.696L25.12,13.536L24.768,12.992L24.512,12.224L24.416,11.392L24.288,11.392L23.936,11.68L23.68,12.256L23.744,12.992L24.064,13.536L24.512,13.984L24.352,14.4L23.68,14.4L23.168,14.56L22.752,15.04L22.56,15.712L22.368,16.416L21.92,16.96L21.408,17.728L21.024,18.656L21.12,18.88L25.664,20.128L26.272,20.032L26.752,19.808L27.168,19.36Z" />
</svg>
