<svg viewBox="0 0 2934.784 1086.464" version="1.1" xmlns="http://www.w3.org/2000/svg">
<path d="M2934.784,1083.392L2926.592,1086.464C2889.728,1044.139 2832.384,987.477 2754.56,916.48L1688.576,916.48L1688.576,957.44C1688.576,961.536 1686.869,964.267 1683.456,965.632C1669.803,965.632 1662.293,963.584 1660.928,959.488L1651.712,916.48L1155.072,916.48L1144.832,959.488C1143.467,963.584 1135.957,965.632 1122.304,965.632C1119.573,964.949 1118.208,962.219 1118.208,957.44L1118.208,916.48L152.576,916.48C88.405,972.459 40.96,1027.072 10.24,1080.32C8.192,1083.733 6.144,1084.416 4.096,1082.368C1.365,1081.685 0,1078.955 0,1074.176L0,1072.128L1.024,1070.08C13.995,997.035 27.648,941.739 41.984,904.192C66.56,837.973 87.04,802.475 103.424,797.696C104.107,797.696 106.325,799.573 110.08,803.328C113.835,807.083 117.589,811.179 121.344,815.616C125.099,820.053 127.317,822.613 128,823.296C142.336,847.872 160.768,850.603 183.296,831.488L211.968,807.936C219.477,802.475 241.835,784.213 279.04,753.152C316.245,722.091 351.232,693.76 384,668.16C416.768,642.56 463.189,610.475 523.264,571.904C583.339,533.333 645.12,498.005 708.608,465.92C874.496,381.269 1107.285,307.883 1406.976,245.76L1409.024,245.76L1411.072,22.528L1419.264,3.072C1420.629,1.024 1421.653,0 1422.336,0C1423.019,0 1432.064,46.421 1449.472,139.264C1466.88,232.107 1475.584,279.552 1475.584,281.6L1475.584,285.696L1463.296,285.696C1446.229,289.792 1437.013,293.205 1435.648,295.936C1430.869,307.541 1428.48,324.949 1428.48,348.16L1428.48,524.288L1406.976,529.408L1406.976,517.12L1405.952,514.048C1403.904,508.587 1401.515,505.856 1398.784,505.856C1395.371,505.856 1391.616,513.024 1387.52,527.36L1387.52,529.408L1379.328,529.408L1379.328,451.584L1372.16,451.584L1367.04,450.56C1326.763,451.243 1286.656,453.461 1246.72,457.216C1206.784,460.971 1169.749,465.408 1135.616,470.528C1101.483,475.648 1068.203,481.451 1035.776,487.936C1003.349,494.421 973.995,501.248 947.712,508.416C921.429,515.584 896.683,522.581 873.472,529.408C850.261,536.235 829.952,542.891 812.544,549.376C795.136,555.861 780.117,561.493 767.488,566.272C754.859,571.051 745.472,574.805 739.328,577.536L729.088,581.632C724.992,581.632 696.832,593.067 644.608,615.936C592.384,638.805 522.581,674.475 435.2,722.944C347.819,771.413 271.36,821.248 205.824,872.448L1118.208,872.448L1118.208,866.304C1118.208,860.16 1119.915,857.088 1123.328,857.088L1154.048,857.088C1158.144,857.088 1160.192,860.16 1160.192,866.304L1160.192,872.448L1646.592,872.448L1646.592,866.304C1646.592,860.16 1648.299,857.088 1651.712,857.088L1682.432,857.088C1686.528,857.088 1688.576,860.16 1688.576,866.304L1688.576,872.448L2705.408,872.448C2665.131,840.363 2633.387,815.787 2610.176,798.72C2520.747,740.011 2431.659,689.493 2342.912,647.168C2140.16,556.373 1912.832,503.808 1660.928,489.472C1651.371,488.789 1642.667,492.885 1634.816,501.76C1626.965,510.635 1621.333,522.24 1617.92,536.576C1608.363,578.901 1603.584,647.509 1603.584,742.4C1603.584,749.909 1598.123,759.125 1587.2,770.048L1583.104,775.168L1576.96,783.36L1576.96,259.072L1581.056,259.072C1774.933,285.696 1940.309,326.656 2077.184,381.952C2214.059,437.248 2361.003,523.947 2518.016,642.048C2595.157,698.027 2675.712,768 2759.68,851.968C2766.507,859.477 2773.845,863.061 2781.696,862.72C2789.547,862.379 2799.275,855.723 2810.88,842.752C2812.928,840.704 2816,837.291 2820.096,832.512C2824.192,827.733 2827.605,824.149 2830.336,821.76C2833.067,819.371 2834.773,818.176 2835.456,818.176C2838.187,818.176 2842.112,821.248 2847.232,827.392C2852.352,833.536 2859.52,845.995 2868.736,864.768C2877.952,883.541 2887.68,906.923 2897.92,934.912C2912.256,976.555 2922.496,1013.077 2928.64,1044.48C2932.053,1060.181 2934.101,1073.152 2934.784,1083.392ZM1446.912,523.264L1446.912,366.592C1446.912,347.477 1448.619,334.507 1452.032,327.68C1452.715,325.632 1455.957,324.096 1461.76,323.072C1467.563,322.048 1471.488,321.877 1473.536,322.56L1474.56,322.56L1474.56,324.608C1480.021,354.645 1484.8,372.736 1488.896,378.88C1502.549,394.581 1524.736,405.504 1555.456,411.648L1556.48,411.648L1556.48,582.656L1553.408,569.344C1552.725,566.613 1551.531,562.176 1549.824,556.032C1548.117,549.888 1546.581,545.451 1545.216,542.72C1528.149,503.808 1512.107,481.621 1497.088,476.16C1486.165,472.747 1475.925,478.891 1466.368,494.592C1463.637,500.736 1460.565,509.611 1457.152,521.216L1457.152,523.264L1446.912,523.264Z" />
</svg>
