<svg viewBox="0 0 2823.168 743.424" version="1.1" xmlns="http://www.w3.org/2000/svg">
<path d="M0,588.8L1.024,560.128L8.192,560.128L3.072,347.136L1.024,345.088L3.072,316.416L8.192,312.32C10.24,233.131 12.288,193.195 14.336,192.512L23.552,184.32C26.283,181.589 46.08,179.883 82.944,179.2L83.968,172.032L113.664,172.032L113.664,181.248L126.976,181.248L134.144,189.44L150.528,189.44L160.768,177.152L217.088,174.08L217.088,159.744L515.072,159.744L515.072,177.152L532.48,189.44L591.872,191.488L571.392,224.256L585.728,224.256L617.472,174.08L650.24,174.08L665.6,151.552L691.2,151.552L691.2,148.48L683.008,148.48L683.008,136.192L691.2,136.192L693.248,129.024L700.416,129.024L700.416,122.88L703.488,122.88L705.536,123.904L727.04,123.904L729.088,122.88L733.184,122.88L733.184,141.312L746.496,141.312L1064.96,68.608L1104.896,68.608L1115.136,65.536L1128.448,65.536L1141.76,53.248L1208.32,53.248L1212.416,49.152L1218.56,46.08L1218.56,43.008L1168.384,43.008L1168.384,16.384L1198.08,0L1298.432,0L1306.624,4.096L1306.624,38.912L1292.288,38.912L1292.288,51.2L1303.552,56.32L1317.888,56.32L1329.152,61.44L1338.368,61.44L1340.416,68.608L1631.232,68.608L2114.56,177.152L2204.672,198.656L2273.28,198.656L2276.352,193.536L2276.352,189.44L2316.288,189.44L2475.008,186.368L2475.008,139.264L2499.584,114.688L2499.584,53.248L2505.728,49.152L2533.376,49.152L2533.376,186.368L2688,186.368L2693.12,193.536L2791.424,193.536L2796.544,205.824L2822.144,205.824C2822.827,206.507 2823.168,207.872 2823.168,209.92L2823.168,257.024C2823.168,258.389 2822.827,259.755 2822.144,261.12C2820.779,263.168 2789.376,264.192 2727.936,264.192L2715.648,292.864L2714.624,307.2L2715.648,308.224L2733.056,308.224L2738.176,321.536L2743.296,319.488L2765.824,319.488L2765.824,375.808L2763.776,377.856L2743.296,377.856L2740.224,375.808L2738.176,377.856L2733.056,385.024L2715.648,385.024L2714.624,377.856L2707.456,377.856L2702.336,379.904L2637.824,379.904L2637.824,384L2657.28,384L2675.712,404.48L2675.712,420.864L2637.824,420.864L2635.776,424.96L2605.056,424.96L2477.056,385.024L2188.288,385.024L2176,372.736L2117.632,372.736L2111.488,370.688L1899.52,370.688L1894.4,377.856L1640.448,377.856L1659.904,420.864L1701.888,420.864L1714.176,437.248C1714.176,439.296 1727.488,440.32 1754.112,440.32L1795.072,440.32L1814.528,449.536L1815.552,470.016L1894.4,467.968L1894.4,462.848L1916.928,462.848L1916.928,576.512L1894.4,576.512L1894.4,571.392L1829.888,575.488L1829.888,570.368L1822.72,570.368L1822.72,575.488L1814.528,575.488L1814.528,582.656L1795.072,590.848L1721.344,590.848L1712.128,584.704L1494.016,584.704L1484.8,590.848L1463.296,590.848L1449.984,582.656L1449.984,575.488L1448.96,575.488L1444.864,564.224L1441.792,480.256L1445.888,470.016L1454.08,470.016L1454.08,449.536L1463.296,440.32L1477.632,437.248L1477.632,420.864L1481.728,417.792L1526.784,417.792L1526.784,415.744C1526.784,413.696 1526.101,411.989 1524.736,410.624C1522.688,410.624 1521.664,410.283 1521.664,409.6L1477.632,409.6L1470.464,399.36L1468.416,385.024L1464.32,385.024L1463.296,412.672L1285.12,412.672L1285.12,437.248L1313.792,437.248L1313.792,449.536L1326.08,449.536L1326.08,716.8L1323.008,718.848L1313.792,718.848L1313.792,726.016L1288.192,726.016L1288.192,710.656L1084.416,710.656L1082.368,713.728L1082.368,726.016L1056.768,726.016L1056.768,718.848L1043.456,718.848L1043.456,449.536L1056.768,449.536L1056.768,435.2L1082.368,435.2L1082.368,412.672L1064.96,412.672L1032.192,407.552L987.136,404.48L989.184,507.904C986.453,518.827 982.357,528.384 976.896,536.576C974.165,540.672 968.363,547.157 959.488,556.032C951.979,563.541 926.72,565.589 883.712,562.176C878.251,562.176 872.789,561.493 867.328,560.128L844.8,550.912L836.608,548.864L814.08,548.864L729.088,691.2L729.088,692.224C729.088,693.589 729.771,694.955 731.136,696.32L753.664,726.016L753.664,743.424L615.424,743.424L610.304,739.328L575.488,739.328L436.224,684.032L436.224,676.864L390.144,656.384L131.072,656.384L129.024,662.528L78.848,665.6L73.728,662.528L73.728,656.384L59.392,665.6C31.403,663.552 16.725,662.187 15.36,661.504C12.629,660.821 11.264,658.773 11.264,655.36C11.264,653.312 10.24,633.515 8.192,595.968L5.12,590.848L0,588.8ZM1904.64,205.824L1990.656,202.752L1996.8,200.704L1904.64,181.248L1904.64,205.824ZM1737.728,475.136L1737.728,563.2C1737.728,571.392 1741.824,575.488 1750.016,575.488C1755.477,575.488 1758.549,574.123 1759.232,571.392C1759.915,570.709 1760.256,569.685 1760.256,568.32L1760.256,475.136C1760.256,468.992 1756.843,465.92 1750.016,465.92C1741.824,465.92 1737.728,468.992 1737.728,475.136ZM1461.248,128L1461.248,148.48L1559.552,148.48L1559.552,159.744L1620.992,159.744L1620.992,186.368L1640.448,186.368L1640.448,189.44L1646.592,191.488L1646.592,194.56L1737.728,194.56L1737.728,202.752L1875.968,202.752L1875.968,186.368C1875.968,181.589 1874.261,178.517 1870.848,177.152L1865.728,174.08L1622.016,123.904L1461.248,128ZM1122.304,194.56L1122.304,209.92L1155.072,209.92L1155.072,217.088L1235.968,217.088L1240.064,219.136L1257.472,219.136L1257.472,193.536L1255.424,189.44L1176.576,189.44L1176.576,194.56L1122.304,194.56ZM873.472,552.96L944.128,552.96C953.003,552.96 960.853,545.451 967.68,530.432C977.92,503.125 975.872,480.597 961.536,462.848C956.757,458.069 950.955,454.315 944.128,451.584C937.301,448.853 932.011,447.317 928.256,446.976C924.501,446.635 918.016,446.635 908.8,446.976C899.584,447.317 894.635,447.488 893.952,447.488C889.856,449.536 886.784,451.584 884.736,453.632C877.227,459.093 872.789,468.651 871.424,482.304C870.059,491.861 870.059,499.712 871.424,505.856C872.107,512 874.496,518.485 878.592,525.312L881.664,536.576L884.736,539.648C885.419,542.379 884.053,544.427 880.64,545.792L874.496,548.864C873.813,549.547 873.472,549.547 873.472,548.864L859.136,540.672L847.872,536.576L859.136,548.864L873.472,552.96ZM463.872,454.656L449.536,467.968L450.56,534.528C450.56,543.403 454.656,550.912 462.848,557.056C466.944,560.469 489.813,571.051 531.456,588.8L602.112,618.496L612.352,621.568C615.765,622.933 618.496,622.933 620.544,621.568L646.144,601.088C655.019,584.704 664.235,567.808 673.792,550.4C683.349,532.992 690.005,520.875 693.76,514.048C697.515,507.221 699.392,503.467 699.392,502.784C700.075,500.053 701.44,497.664 703.488,495.616C700.757,474.453 698.709,462.848 697.344,460.8L691.2,454.656L650.24,450.56L601.088,428.032L601.088,407.552L515.072,397.312L485.376,412.672L463.872,415.744L463.872,454.656ZM326.656,510.976L326.656,532.48L368.64,532.48L368.64,513.024L326.656,510.976ZM217.088,517.12L211.968,530.432C213.333,531.797 246.784,532.48 312.32,532.48L312.32,510.976L219.136,510.976L217.088,517.12Z" />
</svg>
