<svg viewBox="0 0 79.008 27.296" version="1.1" xmlns="http://www.w3.org/2000/svg">
<path d="M78.752,8.448L79.008,8.736L79.008,11.392L78.592,11.808L64.672,11.808L65.184,12.32L66.464,12.32L66.464,13.92L66.336,14.624L65.92,15.36L65.344,15.808L64.672,16.096L41.856,16.096L40.48,16.448L39.36,17.152L38.336,17.952L37.888,18.528L35.584,24.96L35.072,25.952L34.4,26.56L33.408,27.168L32.256,27.296L30.912,27.168L20.992,24.384L20.576,24.224L20.416,23.744L21.504,23.296L21.824,21.472L22.528,19.68L23.648,17.728L25.056,16.064L25.792,15.296L25.984,14.656L25.856,13.984L25.44,13.408L24.384,12.896L23.136,12.736L19.936,12.64L19.936,13.312L19.264,13.664L20.224,23.328L19.872,23.904L17.728,24.16L17.28,23.84L16.832,23.904L16.512,24.288L12.864,24.64L12.64,24.384L12.032,24.448L11.84,24.736L10.08,24.928L9.696,24.672L9.056,20.704L8.448,20.672L8.32,19.52L8,19.52L7.456,18.816L3.744,18.816L3.744,19.04L0.48,20L0,19.52L0.32,15.52L0.384,11.936L0.288,7.936L0.192,4.896L0.384,4.064L0.576,3.904L2.112,3.904L2.336,4.128L3.712,4.128L4.096,4.864L25.792,4.864L27.776,3.936L26.912,3.936L26.496,3.552L27.968,0.32L28.448,0L35.584,0L36.192,0.256L36.64,0.768L36.768,1.536L36.768,2.72L37.152,3.072L37.152,3.424L36.416,4.16L35.584,4.16L35.584,4.864L40.736,4.864L42.432,5.312L64.736,6.272L65.152,6.592L65.152,7.584L64.512,8.224L64.736,8.448L78.752,8.448ZM37.504,15.968L37.504,15.584L37.376,15.136L37.056,14.88L32.384,14.88L32.224,15.616L32.416,16.544L32.768,17.12L32.48,17.472L32.032,17.088L31.68,16.416L31.424,15.616L31.296,14.88L31.008,14.976L30.688,15.296L30.368,15.968L30.432,16.64L30.784,17.312L31.52,17.792L31.392,18.368L30.944,18.336L30.24,18.4L29.76,18.592L29.248,19.2L28.992,20.096L28.832,21.184L28.48,21.344L28.032,21.824L27.68,22.368L27.072,24.064L31.232,25.664L32.128,25.92L33.056,25.92L33.728,25.632L34.208,25.152L37.376,16.448L37.504,15.968ZM61.312,12.064L61.312,11.168L47.584,11.168L47.584,12.064L61.312,12.064Z" />
</svg>
