<svg viewBox="0 0 2364 744" version="1.1" xmlns="http://www.w3.org/2000/svg">
<path d="M1738,578L1724,601L1707,613L1685,615L1664,611L1655,597L1652,582L1652,385L1655,363L1665,349L1680,344L1802,344L1821,348L1832,356L1835,375L1829,400L1738,578ZM1532,184L1532,651L1042,651L1042,652L826,652L818,646L818,633L822,606L832,584L845,559L857,552L861,543L861,530L865,517L877,500L892,484L914,484L918,462L911,449L903,440L896,430L896,416L900,397L908,379L919,366L921,384L934,428L952,457L966,469L973,460L962,443L956,423L952,400L957,377L968,363L1037,363L1031,376L1031,617L1510,617L1510,195L1031,195L1031,184L1532,184ZM711,456L678,465L632,465L597,450L577,426L570,397L576,362L587,348L605,344L638,340L708,348L720,355L734,372L740,397L734,431L711,456ZM2351,154L2351,119L2303,74L2230,74L2230,89L1596,89L1579,72L1368,72L1368,37L1333,37L1333,66L1178,66L1149,37L1007,37L970,6L962,0L838,0L825,10L804,47L768,47L768,26L734,26L719,47L677,62L148,80L108,107L103,88L90,75L33,75L18,81L4,102L0,140L4,207L12,337L8,451L4,555L11,580L18,590L42,589L78,585L92,577L104,550L119,566L726,733L790,744L1708,744L1760,739L1793,728L1822,710L1843,684L1952,441L1976,396L2000,375L2029,366L2083,366L2092,356L2092,316L2081,305L2332,305L2346,282L2364,282L2364,164L2341,164L2351,154Z" />
</svg>
