<svg viewBox="0 0 63.424 29.024" version="1.1" xmlns="http://www.w3.org/2000/svg">
<path d="M62.816,3.712L63.424,3.712L63.424,9.504L62.976,9.952L62.976,12.352L62.208,12.352L61.632,12.96L48.064,12.96L47.488,12.32L46.304,12.32L36.544,19.648L36.544,28.512L36.064,29.024L27.936,29.024L27.52,28.576L27.52,25.216L14.016,21.312L13.504,20.992L13.28,20.672L13.28,20.192L13.92,20L14.368,19.744L14.56,18.432L14.976,17.024L15.808,15.232L16.832,13.6L17.824,12.256L18.08,11.936L18.112,11.744L17.952,11.52L5.28,11.52L3.136,13.792L3.008,14.08L3.008,16.448L2.56,17.44L0.416,18.208L0.16,18.048L0,17.312L0,16.8L0.16,14.112L0.256,11.232L0.16,8.352L0,6.368L0.096,5.696L0.352,5.504L0.768,5.408L1.344,5.408L1.76,5.792L2.464,5.792L2.816,5.44L23.52,5.44L25.472,4.96L26.4,4.256L26.912,3.488L27.168,3.008L29.024,3.008L29.024,2.592L30.336,2.592L30.784,1.856L34.016,1.696L34.496,1.152L34.72,0L35.808,0L35.968,1.12L36.64,1.952L36.64,2.4L40.32,2.4L40.32,2.88L61.408,2.88L62.816,3.712ZM27.52,22.144L27.52,12.448L23.808,12.448L23.68,12.768L23.648,13.344L23.776,14.048L24.064,14.688L23.776,14.976L23.584,14.784L23.36,14.496L23.04,13.824L22.912,13.184L22.88,12.448L22.304,12.448L22.08,12.736L21.92,13.312L21.984,14.048L22.272,14.496L22.88,14.88L22.88,15.168L22.496,15.584L22.144,15.552L21.632,15.616L21.28,15.84L20.992,16.288L20.768,17.088L20.768,17.952L20.384,18.144L19.872,18.688L19.456,19.424L19.2,20.384L27.264,22.72L27.264,22.432L27.52,22.144ZM29.536,9.408L29.536,5.984L28.896,5.984L28.896,9.408L29.536,9.408Z" />
</svg>
