<svg viewBox="0 0 1659 930" version="1.1" xmlns="http://www.w3.org/2000/svg">
<path d="M1102,805L1102,817C1102.769,817.797 1103.137,818.901 1103,820C1103,824 1104,824 1108,824C1129,825 1157,826 1185,825L1189,825C1193,825 1197,825 1199,824C1201,822 1201,819 1201,816C1201,814 1200,812 1201,810C1200.956,808.6 1201.303,807.215 1202,806L1202,805L1102,805ZM577,513C576,513 575,512 574,512C573,511 573,510 573,508C572.863,506.901 573.231,505.797 574,505L586,494L575,483C574,483 574,481 574,480C573.863,478.901 574.231,477.797 575,477C575.911,476.042 577.178,475.498 578.5,475.498C579.822,475.498 581.089,476.042 582,477L592,487L601,478C603,476 606,476 607,478C607.958,478.911 608.502,480.178 608.502,481.5C608.502,482.822 607.958,484.089 607,485L599,494L609,504C610.329,505.773 610.329,508.227 609,510C608.089,510.958 606.822,511.502 605.5,511.502C604.178,511.502 602.911,510.958 602,510L592,500L581,512C580,512 579,513 577,513ZM480,422C473,422 468,417 468,411C468,405 473,400 480,400C486.034,400 491,404.966 491,411C491,417.034 486.034,422 480,422ZM453,559L499,559C501,559 502,559 503,561C504,561 504,563 503,564C502,568 503,571 503,575L503,594C504,606.647 504,619.353 503,632C501,654 491,658 472,659L410,659C396.352,658 382.648,658 369,659C363,659 360,657 359,651C356,639 356,627 356,615L356,567C356,565 356,563 359,562C361,562 364,561 365,565C367,567 369,568 373,568C376.695,567.836 380.395,568.172 384,569C393,570 398,575 399,584C399.825,586.925 400.163,589.965 400,593C401,599 401,604 402,609C404,624 412,637 427,649C428,649 428,649 428,650C429,651 430,652 431,651C432.068,650.928 432.928,650.068 433,649C435,645 436,644 432,641C423,636 416,626 413,615C410.222,604.216 411.653,592.768 417,583C419,580 422,578 425,576C432,572 437,567 443,562C446,559 449,559 453,559ZM511,546C514,546 515,547 515,550C515.012,550.119 515.018,550.238 515.018,550.358C515.018,552.365 513.365,554.018 511.358,554.018C511.238,554.018 511.119,554.012 511,554C508.864,553.855 507.145,552.136 507,550C506.988,549.881 506.982,549.762 506.982,549.642C506.982,547.635 508.635,545.982 510.642,545.982C510.762,545.982 510.881,545.988 511,546ZM460,535L687,535L521,364C521,363 521,363 520,363C519,361 517,359 516,359C511,359 507,358 499,358C487,358 481,363 481,363L348,496C308,536 288,536 286,536L176,536C177,537 177,537 177,538C178,541 180,543 183,543C185,543 188,544 190,544C193,544 195,545 197,545C201,546 203,547 203,551C202.92,553.955 203.997,556.827 206,559C208,563 207,566 206,569C205,570 205,570 205,571C201,582 195,591 188,601C186.781,602.525 185.772,604.207 185,606C169,629 153,653 137,678C126,696 113,714 102,731L84,758C79,766 74,774 69,781L39,826C31,837 24,848 17,858C12,866 7,874 2,881C2,882 1,882 0,882L0,885L1,885C9,893 20,895 30,896C33,897 36,897 40,898C82,907 126,915 164,922C177.182,924.903 190.546,926.907 204,928L205,928C206.504,928.249 207.898,928.946 209,930L210,930C211,928 213,928 215,928C217,927 219,927 220,926C229,920 235,904 233,894C231,887 230,880 232,873C234,865 237,856 241,849C245,841 250,833 254,825C262,811 269,797 277,782C282.778,770.011 293.29,760.949 306,757C317,753 324,741 321,730C317,714 319,699 329,681C331,678 333,673 338,672C342.244,670.847 346.605,670.176 351,670C357,669 362,669 367,667C377,665 387,665 398,665L410,665C427.319,664 444.681,664 462,665L489,665C503,665 512,657 515,642C516,637 516,631 516,626L516,606C516,595 516,584 517,572C517,568 520,564 524,562L529,562C532,565 537,566 542,564C547,563 551,562 555,561L560,561C568,559 570,557 571,548L571,545C572,544 572,542 573,541L460,541C458.391,540.907 457.093,539.609 457,538C456.982,537.875 456.973,537.749 456.973,537.623C456.973,536.169 458.169,534.973 459.623,534.973C459.749,534.973 459.875,534.982 460,535ZM589,494C589,495 591,496 592,496C594,496 595,495 595,494C595.018,493.875 595.027,493.749 595.027,493.623C595.027,492.169 593.831,490.973 592.377,490.973C592.251,490.973 592.125,490.982 592,491C590.391,491.093 589.093,492.391 589,494ZM1444,478L1478,478L1515,477L1649,477C1651,477 1653,477 1654,476C1655.36,474.719 1655.763,472.705 1655,471C1655,470 1656,469 1656,468L1656,466L1657,448C1658,431 1658,415 1659,398C1659,381 1659,366 1658,349C1657,341 1657,332 1657,323C1657,319 1656,319 1652,319L1442,319C1440,319 1439,318 1439,317L1322,317L1322,480L1438,480C1439,478 1441,477 1444,478ZM780,281L780,643C781,654 782,659 783,661L844,661C848,661 852,660 855,657C867,650 871,640 871,638C871,636 870,634 870,631C870,627 869,623 868,617C865,584 859,523 859,468C859,397 869,322 871,313L871,312C871,309 870,291 860,281C854,275 846,272 837,272L786,272C784.6,271.956 783.215,272.303 782,273C780.623,275.437 779.932,278.202 780,281ZM773,535C773,483 773,411 772,358L595,358L751,521C751,522 762,532 773,535ZM614,294L506,294C485,293 463,293 442,294C433,295 425,300 417,309C416,311 415,313 412,313L405,313C400,313 394,313 389,310C387,308 384,309 381,309L375,309C371.637,309.117 368.273,308.78 365,308L362,308C357,313 351,313 345,313L312,313C294,313 277,314 262,320C256,322 251,325 246,327C242,329 237,331 232,333L227,336C217.571,340.266 207.886,343.94 198,347L197,348C195,348 193,349 191,350L181,383L181,463L188,480L274,480C276.051,480.158 278.111,479.815 280,479C286,477 298,471 315,453C341,424 438,328 439,327C440,326 463,304 492,304L682,304C678,302 674,300 670,296C665,292 658,292 652,293C639,294 626,294 614,294ZM740,581C749,585 758,587 770,587L771,587C771.768,587.073 772.481,587.43 773,588L773,541C760,538 747,526 747,525L582,353L772,353L772,310L492,310C466,310 444,330 443,331C442,332 346,428 319,457C301,476 288,482 282,484C279.514,485.249 276.782,485.932 274,486L166,486C164,486 161,486 161,484C160,479 159,475 160,471C161,469 162,469 163,469C165,468 167,470 167,472C168,474 168,477 169,479L169,480L182,480L176,464L176,382L185,351C185,352 184,352 183,352C178,354 176,357 174,362C173,364 173,366 172,368C170.221,371.837 168.879,375.863 168,380C168.038,382.1 166.871,384.046 165,385C164,386 162,386 159,385C152,383 145,383 138,383L133,383C123.852,382.998 114.754,384.346 106,387C104,388 103,388 103,391C103,395 104,400 104,404L104,405L164,405L164,409L104,409L104,410L164,410L164,414L105,414L105,415L164,415L164,419L105,419L105,420L164,420L164,424L105,424L105,425L164,425L164,429L105,429L105,430L164,430L164,434L106,434L106,435L164,435L164,439L106,439L106,440L164,440L164,445L106,445L106,446L164,446L164,450L106,450C105,453 105,457 104,461C104,464 105,466 108,466C112,467 113,468 113,472C114,477 114,484 115,490C118,503 123,518 138,527C141,529 145,531 149,531L287,530C287,530 306,530 344,492L477,359C477,359 485,353 499,353L516,353C519,353 522,356 524,359C524.549,359 525,359.451 525,360L740,581ZM986,318L947,318C945,318 943,319 943,321L943,476C943.145,478.136 944.864,479.855 947,480L986,480C988.136,479.855 989.855,478.136 990,476L990,321C990,320 989,320 989,319C988.203,318.231 987.099,317.863 986,318ZM1264,480L1264,317L995,318L995,480L1264,480ZM1147,515C1142,515 1139,511 1139,506C1139,501 1142,497 1147,497C1151.937,497 1156,501.063 1156,506C1156,510.937 1151.937,515 1147,515ZM1416,505C1419,506 1423,506 1426,506C1428.925,505.175 1431.965,504.837 1435,505C1436,506 1436,505 1437,505L1437,491C1437,490 1436,488 1436,486L1436,485L866,485L866,504C867,503 867,502 868,501C869,498 871,499 872,499L877,499C882,499 886,498 891,504C895,508 901,508 907,507C910,507 914,506 917,507L917,506L918,505C919,502 923,499 928,499C933,498 939,499 942,502C942.544,502.539 942.895,503.242 943,504C945,506 947,508 950,507C952,506 954,505 956,505L964,505C966,506 968,506 969,505C970.234,504.037 970.97,502.566 971,501C971,500 971,499 972,499C975,498 979,498 982,498C984.571,499.004 987.429,499.004 990,498C993,498 993,500 994,501L994,503L995,503C996.368,504.251 998.146,504.962 1000,505C1004.18,505.044 1008.291,506.072 1012,508C1016,511 1021,513 1026,515C1032,519 1039,522 1044,526C1045,527 1046,528 1047,528C1050,531 1053,533 1056,533C1062,532 1067,534 1072,537C1073,537 1074,538 1075,538C1077,539 1080,541 1082,542C1087.183,543.919 1092.2,546.26 1097,549L1098,549C1099.099,548.863 1100.203,549.231 1101,550C1101.271,550.262 1101.425,550.623 1101.425,551C1101.425,551.377 1101.271,551.738 1101,552C1101,556 1099,557 1096,557L1094,557C1092,558 1091,558 1090,557L1088,557L1088,560C1089,563 1089,565 1090,568C1091,577 1093,586 1092,595C1091,609 1090,624 1093,638C1094,642 1093,644 1091,646C1083,651 1084,659 1084,667L1085,669C1085,678 1086,687 1086,696C1086,702 1085,709 1085,715C1084.177,717.582 1083.838,720.295 1084,723C1084,727 1084,728 1087,729C1091,731 1091,734 1091,737L1091,746C1090.855,753.68 1091.189,761.362 1092,769L1092,774C1092,781 1092,786 1097,792C1098.597,792.756 1099.721,794.255 1100,796L1205,796C1209,795 1209,793 1209,788L1209,787C1208,770 1207,755 1209,736L1209,734C1209,732 1210,730 1211,728C1214,726 1214,722 1214,718C1213,716 1213,713 1213,710C1212,704 1211,699 1211,693C1210.917,689.576 1210.24,686.192 1209,683C1208,676 1207,668 1212,660L1211,659L1211,658C1209.789,651.399 1209.12,644.71 1209,638L1209,628C1208.834,620.985 1209.168,613.967 1210,607C1211,596 1212,585 1208,574C1207,571 1207,567 1206,564C1206,558 1206,553 1202,549C1201,548 1200,547 1201,545C1200.863,543.901 1201.231,542.797 1202,542C1203,542 1204,542 1204,541C1208,539 1212,536 1215,537C1218,539 1220,538 1222,536L1223,535L1225,534C1230.233,530.663 1235.244,526.988 1240,523C1242,522 1244,521 1245,521C1247,522 1248,523 1250,525C1254,532 1260,535 1270,535C1273.943,535.829 1277.974,536.164 1282,536C1291.677,535.834 1301.357,536.167 1311,537C1313,537 1316,537 1317,536C1318,533 1321,531 1323,529C1324.505,528.252 1325.86,527.235 1327,526C1330,523 1333,519 1333,517C1331.212,512.553 1330.863,507.656 1332,503C1333,499 1334,497 1338,497L1340,497C1344.613,498.001 1349.387,498.001 1354,497C1356,497 1358,497 1360,499C1361,500 1361,501 1361,503C1361,504 1361,505 1362,505C1362,506 1363,506 1364,506L1380,506C1384,506 1384,505 1384,504C1385,497 1389,497 1393,497L1408,497C1409.854,497.038 1411.632,497.749 1413,499C1414,500 1414,501 1414,503C1413,504 1413,505 1416,505ZM1313,317L1273,317C1272,317 1270,319 1270,321L1270,476C1270,478 1272,480 1273,480L1313,480C1315.136,479.855 1316.855,478.136 1317,476L1317,321C1317,320 1316,319 1315,318C1315,317 1314,317 1313,317ZM866,480L937,480L937,318L878,318C874,343 866,405 866,467L866,480ZM1015,292L1015,293C1014,298 1010,302 1005,302C1000,302 996,298 995,293L995,292L1015,292ZM995,291C996,286 1000,282 1005,282C1010,282 1014,286 1015,291L1015,292L995,292L995,291ZM1092,267L1093,266L1107,280L1106,281C1104,282 1102,283 1100,283C1097.341,283.074 1094.78,281.976 1093,280C1090,277 1089,271 1092,267ZM1094,265C1098,262 1104,263 1107,266C1111,270 1111,275 1108,279L1107,280L1093,266L1094,265ZM905,292L902,292C899,293 895,293 892,293L891,293C889,293 888,294 888,295C887.97,296.566 887.234,298.037 886,299C884,301 881,300 879,300C878.461,299.456 877.758,299.105 877,299C877.719,302.958 878.054,306.977 878,311L1437,311L1437,290L1415,290C1414,291 1414,291 1414,292C1415.014,293.133 1415.014,294.867 1414,296C1413.203,296.769 1412.099,297.137 1411,297C1403,297 1396,297 1390,298C1387,298 1386,296 1385,294C1383,288 1379,289 1375,290C1373,290 1371,291 1369,290L1363,290C1362,291 1362,292 1361,294C1361.012,294.119 1361.018,294.238 1361.018,294.358C1361.018,296.365 1359.365,298.018 1357.358,298.018C1357.238,298.018 1357.119,298.012 1357,298L1338,298C1337,298 1333,298 1333,294C1332,291 1330,290 1326,290L1312,290C1309,290 1308,290 1308,292C1307.962,293.854 1307.251,295.632 1306,297C1304,299 1302,299 1299,299C1298.645,298.53 1298.089,298.253 1297.5,298.253C1296.911,298.253 1296.355,298.53 1296,299C1294.901,299.137 1293.797,298.769 1293,298C1291,297 1291,295 1291,293L1291,291C1289,283 1288,282 1281,283C1278,283 1274,283 1271,284C1267,284 1263,285 1259,285L1254,285C1250,286 1244,287 1241,279C1241,278 1241,278 1240,278L1228,278C1227,277 1225,277 1224,277L1213,277C1205,276 1197,276 1189,275L1183,275C1178,274 1173,273 1169,278C1168.645,278.47 1168.089,278.747 1167.5,278.747C1166.911,278.747 1166.355,278.47 1166,278C1162,277 1159,279 1157,281C1156,282 1155,283 1154,283L1150,287C1148.765,288.14 1147.748,289.495 1147,291L1144,293L1145,290C1147,281 1144,276 1141,270C1141,269 1140,268 1140,267C1137,262 1135,259 1131,257C1127,255 1127,251 1127,248L1127,196C1127,170 1128,142 1127,115L1127,91C1128.167,71.003 1127.832,50.947 1126,31L1126,26C1125,20 1125,13 1122,7C1121.451,7 1121,6.549 1121,6C1120,4 1119,3 1119,0L1113,0C1112.207,4.286 1111.872,8.643 1112,13L1112,108C1112,118 1113,127 1113,137L1113,207C1112.197,212.629 1111.863,218.315 1112,224C1112,226 1112,227 1110,228C1104,232 1100,237 1095,243C1092.92,245.878 1090.577,248.557 1088,251C1086,253 1085,253 1083,254C1073,255 1063,255 1053,255L966,255C950,255 934,255 918,256C912,257 910,260 910,265C909.185,266.889 908.842,268.949 909,271C908,275 907,279 908,283C909,284 908,284 908,285C910,288 911,290 910,291C909,292 907,292 905,292Z" />
</svg>
