<svg viewBox="0 0 59.904 30.176" version="1.1" xmlns="http://www.w3.org/2000/svg">
<path d="M59.552,5.92L59.904,6.112L59.904,9.184L59.648,9.472L49.664,9.472L49.664,10.048L49.376,10.4L43.584,10.4L43.584,11.008L48.832,11.008L49.024,11.328L49.024,12.064L48.896,12.32L47.04,12.32L47.456,12.928L47.488,13.248L47.424,13.44L47.264,13.536L46.784,13.568L40.512,13.568L40.192,13.248L39.872,13.248L39.456,13.632L38.976,14.528L37.92,16.864L35.712,22.304L35.296,22.912L34.752,23.2L34.048,23.456L33.152,23.616L32.128,23.712L26.656,23.712L26.656,29.728L26.208,30.176L24.224,30.176L24.032,29.952L23.296,29.952L23.04,29.696L23.04,23.68L22.208,23.488L21.632,22.304L21.28,21.088L21.12,19.04L21.28,16.864L21.632,15.424L22.272,14.176L22.592,13.088L22.624,12.16L22.4,11.744L20.256,11.456L19.616,10.944L13.92,10.944L13.408,11.072L11.328,11.264L10.56,11.264L10.272,10.976L9.664,11.104L9.024,11.68L4.576,17.632L4.064,18.016L3.36,18.336L2.592,18.496L2.144,18.496L1.952,19.04L0.512,19.52L0.128,19.36L0,18.976L0,18.336L0.096,15.104L0.128,10.976L0,6.752L0,5.088L0.256,4.384L0.64,4.064L2.08,4.064L2.464,4.8L2.976,4.8L3.392,5.216L3.776,5.216L3.936,5.056L23.136,5.056L23.136,3.904L23.328,3.392L23.552,3.392L23.552,2.816L23.968,2.816L24.704,3.712L24.992,4.704L25.216,4.736L25.216,5.056L25.504,5.056L25.504,4.672L25.856,4.288L33.088,4.288L33.088,3.776L31.936,3.776L31.648,3.616L30.848,3.616L30.848,0.8L31.264,0.384L31.968,0.384L32.448,0L32.864,0L32.864,0.32L38.976,0.32L39.136,0.448L39.136,0.832L39.552,0.832L39.552,3.424L39.36,3.616L38.848,3.616L38.848,3.84L38.464,3.84L38.464,4.384L41.152,4.384L41.152,4.768L47.2,4.768L47.616,5.152L49.216,5.152L49.632,5.504L49.632,5.92L59.552,5.92ZM36.032,12.928L36.032,12.576L35.808,12.384L35.456,12.256L29.184,12.256L28.992,12.736L28.928,13.28L28.96,13.792L29.088,14.208L29.344,14.56L29.184,14.848L28.736,14.4L28.32,13.568L28.16,12.736L28.16,12.256L27.488,12.256L27.232,12.352L27.072,12.704L26.912,13.152L26.816,13.888L26.816,14.496L27.04,14.912L27.488,15.232L27.456,15.584L26.912,15.872L26.912,21.056L27.008,21.28L27.264,21.536L27.712,21.632L31.744,21.632L32.288,21.472L32.736,21.088L33.152,20.384L35.904,13.44L36.032,12.928Z" />
</svg>
