<svg viewBox="0 0 34.912 25.664" version="1.1" xmlns="http://www.w3.org/2000/svg">
<path d="M3.648,5.632L3.136,5.12L3.136,1.12L3.616,0.64L6.112,0.64L6.752,0L8.288,0L8.928,0.64L11.808,0.64L12.096,0.896L13.152,0.896L13.472,0.576L31.008,0.576L31.008,0.224L32.032,0.224L32.448,0.64L33.92,0.64L34.24,0.96L34.24,2.048L34.912,2.048L34.912,4.48L34.208,4.48L34.208,5.152L33.92,5.44L34.176,5.696L34.176,7.68L26.24,7.68L25.632,8.672L17.408,8.672L17.152,9.472L17.056,10.432L17.088,11.52L17.28,12.64L17.344,12.96L16.8,13.152L16.352,12.128L16,10.56L15.904,9.12L15.872,8.672L15.392,8.736L14.848,9.472L14.496,10.272L14.368,11.264L14.304,12.32L14.624,13.28L15.424,14.112L16.032,14.496L15.84,14.944L14.56,15.232L13.696,15.648L12.928,16.448L12.448,17.344L12.288,18.592L11.712,18.944L11.136,19.744L10.624,20.928L10.112,22.432L9.696,23.872L9.664,24.864L9.696,25.536L9.376,25.664L8.576,25.664L1.152,23.776L0,23.168L0.064,22.304L1.76,22.208L1.856,20.48L2.336,18.24L3.392,15.744L5.056,13.28L6.048,11.904L6.88,10.336L6.784,9.696L5.792,8.736L4.928,8.192L4.576,8.096L2.592,8.096L2.208,7.744L2.944,6.304L3.904,5.952L3.648,5.632Z" />
</svg>
