<svg viewBox="0 0 112.224 17.088" version="1.1" xmlns="http://www.w3.org/2000/svg">
<path d="M76.896,0.608L112.224,0.608L97.28,12.288L39.552,12.288L37.92,10.048L36.672,8.992L35.104,8.288L33.664,8.032L32.704,7.904L32.096,8.256L29.76,8.704L28.288,7.936L27.2,8.16L26.624,17.088L25.824,17.088L22.816,8L20.896,6.752L4.864,6.752L4.384,7.072L3.904,7.488L3.616,7.904L0.736,7.904L0,7.04L0,1.888L1.44,1.152L3.872,1.152L4.864,2.432L20.704,2.432L24.224,0.672L38.976,0.672L39.424,0L44.096,0L45.664,1.76L75.232,1.76L76.896,0.608ZM57.824,9.44L57.824,8.192L48.544,8.192L48.544,9.44L57.824,9.44ZM61.12,9.44L94.496,9.44L93.472,8.192L61.12,8.192L61.12,9.44ZM95.904,7.712L99.904,4.736L99.904,4.064L95.872,4.064L95.872,6.112L95.168,6.752L95.904,7.712Z" />
</svg>
