<svg version="1.0" xmlns="http://www.w3.org/2000/svg" viewBox="0 0 256.000000 256.000000">
<g transform="translate(0.000000,256.000000) scale(0.100000,-0.100000)">
<path d="M1089 2534 c-679 -106 -1156 -755 -1054 -1434 103 -688 750 -1168
1435 -1065 688 103 1168 750 1065 1435 -104 691 -757 1172 -1446 1064z m416
-372 c174 -48 285 -111 411 -237 135 -135 204 -255 250 -435 26 -104 26 -306
0 -410 -30 -116 -112 -300 -134 -300 -9 0 -1252 1243 -1252 1252 0 10 85 57
158 87 59 24 151 50 232 65 56 10 267 -4 335 -22z m242 -1654 c-34 -26 -173
-82 -257 -104 -104 -26 -306 -26 -410 0 -98 25 -212 73 -286 121 -80 52 -231
206 -277 282 -93 152 -132 296 -132 478 0 95 5 150 19 205 22 85 65 195 97
247 l22 35 623 -623 c624 -624 624 -624 601 -641z"/>
</g>
</svg>
