<svg version="1.0" xmlns="http://www.w3.org/2000/svg" viewBox="0 0 850.000000 850.000000" >
<g transform="translate(0.000000,850.000000) scale(0.100000,-0.100000)">
<path d="M1870 6628 l-1865 -1868 857 0 858 0 0 208 0 209 238 7 c295 8 709
32 782 45 252 45 452 135 705 319 131 95 210 184 274 309 l21 42 -2 1298 -3
1298 -1865 -1867z"/>
<path d="M4760 7197 l0 -1298 21 -42 c64 -125 143 -214 274 -309 253 -184 453
-274 705 -319 73 -13 487 -37 783 -45 l237 -7 0 -209 0 -208 858 0 857 0 -930
930 c-512 512 -1352 1352 -1868 1868 l-937 937 0 -1298z"/>
<path d="M1870 1873 l1865 -1868 3 1298 2 1298 -21 42 c-64 125 -143 214 -274
309 -253 184 -453 274 -705 319 -73 13 -487 37 -782 45 l-238 7 0 209 0 208
-858 0 -857 0 1865 -1867z"/>
<path d="M6780 3532 l0 -209 -237 -7 c-296 -8 -710 -32 -783 -45 -252 -45
-452 -135 -705 -319 -131 -95 -210 -184 -274 -309 l-21 -42 2 -1298 3 -1298
1865 1868 1865 1867 -857 0 -858 0 0 -208z"/>
</g>
</svg>
