<svg version="1.1" xmlns="http://www.w3.org/2000/svg" viewBox="0 0 1224.000000 1352.000000">
<g transform="translate(0.000000,1352.000000) scale(0.100000,-0.100000)">
<path d="M5900 13514 c-25 -2 -115 -8 -200 -14 -85 -7 -163 -14 -172 -16 -17
-5 -18 -210 -18 -4125 l0 -4119 -1199 -2 -1198 -3 1498 -2615 c825 -1438 1503
-2615 1509 -2615 6 0 684 1177 1509 2615 l1498 2615 -1198 3 -1199 2 0 4120 0
4120 -22 4 c-93 20 -675 41 -808 30z"/>
<path d="M4476 13280 c-176 -52 -407 -131 -586 -202 -209 -83 -620 -284 -815
-398 -925 -543 -1695 -1313 -2235 -2235 -147 -252 -317 -605 -429 -892 l-39
-103 2119 0 2119 0 0 1930 c0 1832 -1 1930 -17 1929 -10 0 -62 -13 -117 -29z"/>
<path d="M7630 11380 l0 -1930 2119 0 2119 0 -39 103 c-112 287 -282 640 -429
892 -540 922 -1310 1692 -2235 2235 -183 107 -600 312 -791 389 -230 92 -681
241 -731 241 -11 0 -13 -317 -13 -1930z"/>
<path d="M31 7948 c-41 -456 -41 -809 0 -1235 l12 -123 2283 0 2284 0 0 745 0
745 -2284 0 -2283 0 -12 -132z"/>
<path d="M7630 7335 l0 -745 2284 0 2283 0 12 123 c41 426 41 779 0 1235 l-12
132 -2283 0 -2284 0 0 -745z"/>
</g>
</svg>
