<svg version="1.0" xmlns="http://www.w3.org/2000/svg" viewBox="0 0 360.000000 360.000000">
<g transform="translate(0.000000,360.000000) scale(0.100000,-0.100000)">
<path d="M1625 3159 c-284 -56 -518 -243 -621 -497 -55 -137 -57 -155 -62
-503 l-3 -326 -60 -6 c-103 -9 -194 -83 -219 -178 -7 -25 -10 -218 -8 -541 l3
-503 28 -47 c31 -53 79 -94 134 -114 56 -19 1910 -19 1966 0 55 20 103 61 134
114 l28 47 3 503 c2 323 -1 516 -8 541 -25 95 -116 169 -219 178 l-60 6 -3
326 c-5 348 -7 366 -62 503 -41 102 -88 170 -181 263 -118 118 -217 175 -381
221 -70 19 -333 28 -409 13z m307 -350 c180 -37 329 -187 367 -367 6 -31 11
-167 11 -332 l0 -280 -510 0 -510 0 0 280 c0 164 5 301 11 332 36 174 180 322
352 364 66 16 210 17 279 3z"/>
</g>
</svg>
