<svg version="1.1" xmlns="http://www.w3.org/2000/svg" viewBox="0 0 328.000000 328.000000">
<g transform="translate(0.000000,328.000000) scale(0.100000,-0.100000)" fill="#fff">
<path d="M240 2395 l0 -715 370 0 370 0 0 256 0 255 -80 99 c-44 54 -80 102
-80 105 0 3 36 51 80 105 l80 99 0 255 0 256 -370 0 -370 0 0 -715z"/>
<path d="M2320 2854 l0 -255 80 -99 c44 -54 80 -102 80 -105 0 -3 -36 -51 -80
-105 l-80 -99 0 -255 0 -256 370 0 370 0 0 715 0 715 -370 0 -370 0 0 -256z"/>
<path d="M1460 3041 c0 -57 -4 -54 113 -71 57 -8 97 -8 155 0 116 17 112 14
112 71 l0 49 -190 0 -190 0 0 -49z"/>
<path d="M1080 2390 c0 -449 3 -570 13 -570 6 0 134 19 284 42 l271 41 274
-42 c150 -23 279 -41 286 -41 9 0 12 121 12 570 0 536 -1 570 -17 570 -10 0
-139 -19 -287 -42 l-269 -41 -266 41 c-146 23 -274 42 -283 42 -17 0 -18 -34
-18 -570z"/>
<path d="M1600 1815 c-8 -2 -48 -9 -87 -15 l-73 -12 0 -49 0 -49 210 0 210 0
0 49 0 49 -63 11 c-76 13 -176 21 -197 16z"/>
<path d="M1440 1100 l0 -480 -30 0 -30 0 0 -90 0 -90 270 0 270 0 0 90 0 90
-30 0 -30 0 0 480 0 480 -210 0 -210 0 0 -480z"/>
</g>
</svg>
