<svg version="1.0" xmlns="http://www.w3.org/2000/svg" viewBox="0 0 350.000000 350.000000">
<g transform="translate(0.000000,350.000000) scale(0.100000,-0.100000)">
<path d="M559 1910 c-183 -215 -335 -397 -337 -405 -3 -13 22 -15 157 -15
l161 0 2 -217 3 -218 350 0 350 0 3 218 2 217 166 0 c140 0 165 2 162 15 -3
15 -668 795 -678 795 -3 0 -157 -176 -341 -390z m538 -61 c100 -118 182 -217
182 -221 1 -4 -43 -9 -96 -10 l-98 -3 -3 -187 -2 -188 -180 0 -180 0 -2 188
-3 187 -97 3 c-54 1 -98 5 -98 8 0 5 205 250 318 382 30 35 60 61 66 59 6 -2
93 -100 193 -218z"/>
</g>
</svg>
