<?xml version="1.0" standalone="no"?>
<!DOCTYPE svg PUBLIC "-//W3C//DTD SVG 20010904//EN"
 "http://www.w3.org/TR/2001/REC-SVG-20010904/DTD/svg10.dtd">
<svg version="1.0" xmlns="http://www.w3.org/2000/svg"
 width="350.000000pt" height="321.000000pt" viewBox="0 0 350.000000 321.000000"
 preserveAspectRatio="xMidYMid meet">

<g transform="translate(0.000000,321.000000) scale(0.100000,-0.100000)"
fill="#000000" stroke="none">
<path d="M940 2860 l0 -350 -349 0 c-219 0 -361 -4 -382 -11 -81 -25 -143 -75
-182 -143 -22 -40 -22 -48 -25 -434 l-3 -392 203 2 203 3 3 283 2 282 265 0
265 0 2 -330 3 -330 134 75 c74 41 136 75 138 75 2 0 58 31 126 69 67 37 158
87 202 111 44 24 114 62 155 85 41 23 107 59 145 80 39 21 104 57 145 80 41
23 111 61 155 85 44 24 109 60 145 80 36 20 106 58 155 85 50 26 94 51 99 56
6 5 -5 15 -25 24 -19 8 -41 20 -49 25 -8 5 -73 41 -145 80 -71 39 -137 75
-145 80 -8 6 -22 13 -30 17 -8 3 -69 36 -135 73 -66 37 -127 70 -135 73 -8 4
-22 11 -30 17 -24 16 -323 180 -327 180 -3 0 -35 17 -71 39 -75 43 -138 78
-257 141 -44 23 -84 46 -90 50 -5 4 -45 26 -87 49 l-78 42 0 -351z"/>
<path d="M2421 1695 c-74 -41 -136 -75 -138 -75 -2 0 -58 -31 -126 -69 -67
-37 -158 -87 -202 -111 -44 -24 -114 -62 -155 -85 -41 -23 -106 -59 -145 -80
-38 -21 -104 -57 -145 -80 -41 -23 -111 -61 -155 -85 -44 -24 -109 -60 -145
-80 -36 -20 -105 -58 -155 -85 -49 -26 -94 -51 -99 -56 -6 -5 5 -15 25 -24 19
-8 41 -20 49 -25 8 -5 74 -41 145 -80 72 -39 137 -75 145 -80 8 -6 22 -13 30
-17 8 -3 69 -36 135 -73 66 -37 127 -70 135 -73 8 -4 22 -11 30 -17 24 -16
323 -180 327 -180 3 0 35 -17 71 -39 75 -43 138 -78 257 -141 44 -23 85 -46
90 -50 6 -4 45 -26 88 -49 l77 -42 0 351 0 350 349 0 c219 0 361 4 382 11 81
25 143 75 182 143 22 40 22 48 25 434 l3 392 -203 -2 -203 -3 -3 -282 -2 -283
-265 0 -265 0 -2 330 -3 330 -134 -75z"/>
</g>
</svg>
