<svg version="1.0" xmlns="http://www.w3.org/2000/svg" viewBox="0 0 360.000000 360.000000">
<g transform="translate(0.000000,360.000000) scale(0.100000,-0.100000)">
<path d="M2445 3159 c-284 -56 -518 -243 -621 -497 -55 -137 -57 -155 -62
-504 l-3 -328 -722 0 c-577 -1 -730 -4 -760 -14 -55 -20 -103 -61 -134 -114
l-28 -47 0 -525 0 -525 28 -47 c31 -53 79 -94 134 -114 56 -19 1910 -19 1966
0 55 20 103 61 134 114 l28 47 3 503 c2 323 -1 516 -8 541 -26 98 -117 170
-225 179 l-65 5 0 278 c0 164 5 300 11 331 37 178 189 330 367 367 29 6 89 11
132 11 43 0 103 -5 132 -11 180 -37 329 -187 367 -367 6 -31 11 -167 11 -332
l0 -280 176 0 175 0 -3 328 c-5 349 -7 367 -62 504 -41 102 -88 170 -181 263
-118 118 -217 175 -381 221 -70 19 -333 28 -409 13z"/>
</g>
</svg>
