<svg version="1.0" xmlns="http://www.w3.org/2000/svg" viewBox="0 0 256.000000 256.000000">
<g transform="translate(0.000000,256.000000) scale(0.100000,-0.100000)">
<path d="M1228 2337 c-26 -78 -92 -283 -148 -454 l-102 -313 -481 -2 -481 -3
384 -279 c212 -154 387 -281 389 -283 2 -1 -62 -206 -143 -455 -80 -248 -144
-453 -142 -455 3 -3 697 497 762 548 7 5 152 -94 395 -271 211 -154 387 -280
390 -280 4 0 -36 129 -87 287 -52 159 -118 363 -148 456 l-54 167 388 283 388
282 -481 3 -482 2 -144 448 c-79 246 -147 450 -150 454 -4 4 -28 -56 -53 -135z"/>
</g>
</svg>
