<svg version="1.0" xmlns="http://www.w3.org/2000/svg" viewBox="0 0 1224.000000 1352.000000">
<g transform="translate(0.000000,1352.000000) scale(0.100000,-0.100000)">
<path d="M5685 13469 c-577 -47 -1066 -156 -1550 -346 -487 -192 -899 -458
-1245 -803 -552 -550 -859 -1186 -979 -2025 -18 -122 -25 -207 -45 -517 l-5
-68 1305 0 c1273 0 1304 0 1304 19 0 53 23 238 41 325 89 442 312 761 700
1001 298 185 608 265 979 252 455 -15 830 -179 1130 -493 211 -221 321 -483
352 -836 25 -294 -31 -596 -160 -853 -172 -345 -596 -750 -1207 -1153 -233
-154 -377 -258 -515 -371 -496 -406 -755 -771 -940 -1323 -160 -480 -224 -964
-246 -1871 l-6 -267 1215 0 1214 0 6 273 c5 286 20 432 63 647 94 464 253 766
583 1103 237 243 459 412 866 662 563 346 1003 737 1345 1196 234 313 386 641
480 1029 72 302 94 508 94 885 1 295 -7 412 -40 625 -86 548 -297 1035 -634
1460 -101 129 -381 410 -510 512 -646 515 -1464 817 -2500 924 -181 19 -920
28 -1095 13z"/>
<path d="M5695 3100 c-204 -23 -356 -69 -536 -161 -415 -214 -724 -621 -807
-1063 -23 -129 -23 -455 1 -586 73 -390 304 -736 654 -977 335 -231 773 -312
1191 -222 497 108 962 529 1121 1016 89 273 100 567 32 837 -72 281 -191 486
-411 706 -298 297 -626 441 -1035 455 -71 2 -166 0 -210 -5z"/>
</g>
</svg>
