<svg version="1.1" xmlns="http://www.w3.org/2000/svg" viewBox="0 0 636.000000 637.000000">
<g transform="translate(0.000000,637.000000) scale(0.100000,-0.100000)">
<path d="M2130 6218 c-41 -84 -127 -263 -192 -397 -65 -134 -118 -245 -118
-247 0 -1 -50 -105 -111 -230 l-110 -227 102 -265 c56 -145 104 -273 106 -283
5 -18 4 -18 -48 0 -30 10 -156 57 -280 105 l-226 87 -227 -110 c-125 -61 -229
-111 -230 -111 -2 0 -113 -53 -247 -118 -134 -65 -313 -151 -396 -192 -84 -40
-153 -76 -153 -80 0 -3 66 -37 148 -75 81 -38 221 -104 312 -148 91 -44 192
-92 225 -107 33 -15 107 -50 165 -78 321 -153 408 -192 424 -192 6 0 59 23
116 51 58 28 143 69 190 91 47 22 128 61 180 86 52 25 192 91 310 147 l214
102 264 538 263 537 -20 47 c-18 42 -61 134 -171 366 -24 50 -57 122 -75 160
-18 39 -68 144 -112 235 -44 91 -110 231 -148 313 -38 81 -72 147 -75 147 -4
0 -40 -69 -80 -152z"/>
<path d="M4075 6223 c-38 -82 -104 -222 -148 -313 -44 -91 -94 -196 -112 -235
-18 -38 -51 -110 -75 -160 -110 -232 -153 -324 -171 -366 l-20 -47 263 -537
264 -538 214 -102 c118 -56 258 -122 310 -147 52 -25 133 -64 180 -86 47 -22
132 -63 190 -91 57 -28 110 -51 116 -51 16 0 103 39 424 192 58 28 132 63 165
78 33 15 134 63 225 107 91 44 231 110 313 148 81 38 147 72 147 75 0 4 -69
40 -152 80 -84 41 -263 127 -397 192 -134 65 -245 118 -247 118 -1 0 -105 50
-230 111 l-227 110 -226 -87 c-124 -48 -250 -95 -280 -105 -52 -18 -53 -18
-48 0 2 10 50 138 106 283 l102 265 -110 227 c-61 125 -111 229 -111 230 0 2
-53 113 -118 247 -65 134 -151 313 -192 397 -40 83 -76 152 -80 152 -3 0 -37
-66 -75 -147z"/>
<path d="M3082 4543 c-50 -104 -148 -304 -217 -446 l-126 -259 57 -141 c31
-78 63 -157 72 -175 8 -18 13 -34 11 -36 -2 -2 -80 27 -174 65 -93 38 -174 69
-179 69 -5 0 -79 -34 -165 -76 -187 -92 -463 -226 -620 -301 -68 -32 -110 -58
-105 -63 5 -5 208 -106 452 -224 l443 -215 37 14 c20 8 71 28 112 46 129 54
193 79 197 75 2 -2 -26 -75 -62 -164 -36 -88 -65 -170 -65 -180 0 -11 31 -82
69 -158 37 -77 87 -179 111 -229 57 -120 251 -509 256 -514 2 -2 12 16 23 40
10 24 74 157 141 294 67 138 156 320 197 405 l75 155 -71 176 c-39 98 -71 179
-71 182 0 2 81 -29 181 -69 l181 -73 36 19 c21 11 221 110 445 220 351 172
436 220 388 220 -5 0 -168 78 -362 173 -195 96 -389 191 -432 212 l-79 37 -66
-25 c-37 -14 -116 -46 -176 -71 -60 -25 -111 -44 -113 -42 -2 2 9 32 25 67 16
35 48 113 71 173 l42 108 -20 47 c-11 25 -94 197 -184 381 -90 184 -179 365
-196 403 -17 37 -35 67 -39 67 -5 0 -49 -84 -100 -187z"/>
<path d="M1175 2781 c-44 -21 -107 -50 -140 -66 -33 -15 -125 -59 -204 -96
-79 -38 -144 -69 -146 -69 -2 0 -90 -42 -196 -93 -107 -52 -260 -125 -341
-162 -82 -38 -148 -72 -148 -75 0 -4 69 -40 153 -80 83 -41 262 -127 396 -192
134 -65 245 -118 247 -118 1 0 105 -50 230 -111 l227 -110 226 87 c124 48 250
95 280 105 52 18 53 18 48 0 -2 -10 -50 -138 -106 -283 l-102 -265 110 -227
c61 -125 111 -229 111 -230 0 -2 53 -113 118 -247 65 -134 151 -313 192 -396
40 -84 76 -153 80 -153 3 0 37 66 75 147 38 82 104 222 148 313 44 91 94 197
112 235 18 39 51 111 75 160 110 232 153 324 171 366 l20 47 -263 537 -264
538 -214 102 c-118 56 -258 122 -310 147 -52 25 -133 64 -180 86 -47 22 -132
63 -190 91 -57 28 -111 51 -120 50 -8 0 -51 -17 -95 -38z"/>
<path d="M4970 2769 c-58 -28 -143 -69 -190 -91 -47 -22 -128 -61 -180 -86
-52 -25 -192 -91 -310 -147 l-214 -102 -264 -538 -263 -537 20 -47 c18 -42 61
-134 171 -366 24 -49 57 -121 75 -160 18 -38 68 -144 112 -235 44 -91 110
-231 148 -313 38 -81 72 -147 75 -147 4 0 40 69 80 153 41 83 127 262 192 396
65 134 118 245 118 247 0 1 50 105 111 230 l110 227 -102 265 c-56 145 -104
273 -106 283 -5 18 -4 18 48 0 30 -10 156 -57 280 -105 l226 -87 227 110 c125
61 229 111 230 111 2 0 113 53 247 118 134 65 313 151 397 192 83 40 152 76
152 80 0 3 -66 37 -147 75 -82 38 -222 104 -313 148 -91 44 -192 92 -225 107
-33 15 -107 50 -165 78 -321 153 -408 192 -424 192 -6 0 -59 -23 -116 -51z"/>
</g>
</svg>
