<svg version="1.1" xmlns="http://www.w3.org/2000/svg" viewBox="0 0 220.000000 220.000000">
<g transform="translate(0.000000,220.000000) scale(0.100000,-0.100000)">
<path d="M302 1483 c4 -514 5 -541 25 -615 93 -331 351 -584 685 -670 l88 -23
87 23 c335 86 593 339 686 670 20 74 21 101 25 615 2 295 0 537 -5 537 -4 0
-185 -21 -400 -46 l-393 -46 -392 46 c-216 25 -397 46 -401 46 -5 0 -7 -242
-5 -537z m441 456 l359 -41 356 41 c196 23 370 44 385 47 l28 6 -3 -524 -4
-523 -27 -88 c-89 -288 -291 -501 -573 -604 -134 -49 -194 -49 -328 0 -281
103 -484 316 -573 604 l-27 88 -4 523 -3 524 28 -6 c15 -3 189 -24 386 -47z"/>
<path d="M440 1445 c0 -465 5 -515 59 -646 81 -194 251 -353 458 -429 116 -43
170 -43 286 0 207 76 377 235 458 429 54 131 59 181 59 646 l0 425 -22 -5
c-13 -2 -161 -21 -330 -40 l-308 -36 -307 36 c-170 19 -318 38 -330 40 l-23 5
0 -425z m539 151 c64 -68 69 -111 21 -171 -16 -21 -30 -41 -30 -45 0 -3 14
-19 30 -35 28 -27 30 -34 30 -100 l0 -71 -58 -57 -58 -58 -134 3 -133 3 -25
73 c-13 40 -21 76 -18 79 3 4 30 -1 60 -10 80 -26 151 -23 181 8 50 49 22 92
-65 97 l-55 3 -3 58 -3 57 54 0 c72 0 106 24 87 61 -7 13 -18 27 -24 31 -20
14 -125 8 -166 -8 -23 -9 -44 -14 -47 -11 -5 6 23 121 34 140 2 4 64 7 137 7
l133 0 52 -54z m568 2 l53 -52 0 -186 0 -186 -54 -57 -55 -57 -118 0 -117 0
-58 57 -58 57 0 183 0 183 55 55 55 55 122 0 122 0 53 -52z m-409 -740 l3
-128 -41 0 -40 0 0 123 c0 68 3 127 7 131 4 4 21 6 38 4 l30 -3 3 -127z m-129
43 c23 -17 24 -22 17 -91 -6 -67 -4 -75 16 -97 29 -31 87 -32 114 -2 15 17 19
37 19 101 0 75 1 80 27 95 25 16 27 16 52 -13 14 -16 26 -32 26 -37 0 -4 -15
-20 -32 -36 l-33 -29 44 -12 c41 -11 43 -13 37 -42 -3 -17 -6 -37 -6 -45 0
-12 -10 -14 -51 -8 l-50 7 20 -41 21 -41 -40 -20 c-46 -24 -53 -22 -70 20 -16
38 -24 38 -40 0 -17 -42 -24 -44 -70 -20 l-40 20 21 41 20 41 -50 -7 c-41 -6
-51 -4 -51 8 0 8 -3 28 -6 45 -6 29 -4 31 37 42 l44 12 -33 29 c-17 16 -32 31
-32 35 0 11 45 63 55 63 6 0 21 -8 34 -18z m-181 -123 c-3 -22 -8 -23 -83 -23
-75 0 -80 1 -83 23 -3 21 -1 22 83 22 84 0 86 -1 83 -22z m710 0 c-3 -22 -8
-23 -83 -23 -75 0 -80 1 -83 23 -3 21 -1 22 83 22 84 0 86 -1 83 -22z"/>
<path d="M1355 1522 c-39 -7 -45 -30 -45 -167 0 -147 7 -165 68 -165 53 0 62
26 62 171 0 107 -3 128 -17 141 -23 19 -43 25 -68 20z"/>
</g>
</svg>
