<svg version="1.1" xmlns="http://www.w3.org/2000/svg" viewBox="0 0 1550.000000 1177.000000">
<g transform="translate(0.000000,1177.000000) scale(0.100000,-0.100000)">
<path d="M6840 11754 c-771 -91 -1073 -138 -1490 -230 -419 -94 -830 -228
-1046 -341 -55 -29 -64 -43 -70 -104 -3 -29 -7 -55 -9 -59 -5 -8 -33 -264 -45
-410 -11 -149 -13 -151 -122 -206 -489 -245 -1088 -635 -1478 -964 -63 -53
-137 -112 -163 -130 -42 -30 -51 -33 -75 -23 -199 83 -285 116 -327 124 -27 6
-62 19 -77 30 -34 23 -222 99 -248 99 -42 0 -345 -273 -442 -398 -23 -31 -70
-86 -104 -122 -155 -166 -569 -702 -620 -802 -9 -18 -26 -44 -39 -58 -33 -37
-144 -217 -162 -264 -9 -23 -26 -52 -39 -66 -26 -29 -155 -279 -233 -454 l-53
-118 23 -23 c24 -23 271 -194 361 -251 26 -16 135 -84 242 -151 107 -67 282
-173 388 -235 199 -116 230 -134 333 -189 33 -17 74 -42 90 -54 36 -27 214
-128 892 -506 344 -192 1148 -636 1482 -819 123 -67 249 -134 280 -147 31 -14
65 -33 76 -43 11 -11 43 -29 70 -41 28 -12 57 -27 65 -34 8 -7 100 -61 204
-120 104 -59 202 -120 218 -134 l30 -27 -63 -74 c-168 -201 -270 -363 -290
-461 -9 -47 -8 -62 9 -110 32 -93 289 -437 433 -580 89 -90 104 -95 263 -84
113 8 122 5 192 -51 28 -22 54 -59 82 -116 43 -87 163 -235 242 -299 23 -19
62 -51 86 -71 24 -20 63 -46 87 -56 23 -10 66 -41 95 -68 l53 -49 73 -232 c40
-127 83 -252 94 -277 12 -25 27 -67 33 -93 23 -97 103 -321 154 -428 53 -113
125 -210 180 -244 53 -32 353 -331 433 -430 43 -53 133 -174 202 -270 69 -96
142 -190 163 -210 21 -20 45 -51 54 -69 24 -49 125 -147 185 -179 52 -28 55
-28 238 -28 183 0 186 0 238 28 60 32 161 130 185 179 9 18 33 49 54 69 21 20
94 114 163 210 69 96 159 217 202 270 80 99 380 398 433 430 55 34 127 131
180 244 51 107 131 331 154 428 6 26 21 68 33 93 11 25 54 150 94 277 l73 232
53 49 c29 27 72 58 95 68 24 10 63 36 87 56 24 20 63 52 86 71 79 64 199 212
242 299 28 57 54 94 82 116 70 56 79 59 192 51 159 -11 174 -6 263 84 144 143
401 487 433 580 17 48 18 63 9 110 -20 98 -122 260 -290 461 l-63 74 30 27
c16 14 114 75 218 134 104 59 196 113 204 120 8 7 37 22 65 34 27 12 59 30 70
41 11 10 45 29 76 43 31 13 157 80 280 147 334 183 1138 627 1482 819 678 378
856 479 892 506 17 12 57 37 90 54 103 55 134 73 333 189 106 62 281 168 388
235 107 67 216 135 242 151 90 57 337 228 361 251 l23 23 -53 118 c-78 175
-207 425 -233 454 -13 14 -30 43 -39 66 -18 47 -129 227 -162 264 -13 14 -30
40 -39 58 -51 100 -465 636 -620 802 -34 36 -81 91 -104 122 -97 125 -400 398
-442 398 -26 0 -214 -76 -248 -99 -15 -11 -49 -24 -77 -30 -42 -8 -128 -41
-327 -124 -24 -10 -33 -7 -75 23 -26 18 -100 77 -163 130 -390 329 -989 719
-1478 964 -109 55 -111 57 -122 206 -12 146 -40 402 -45 410 -2 4 -6 30 -9 59
-3 29 -10 59 -17 67 -43 52 -398 191 -722 283 -477 135 -1021 230 -1846 322
-181 20 -195 20 -207 5 -23 -31 -25 -505 -22 -3932 l3 -3412 85 -88 c96 -100
144 -173 191 -289 85 -213 96 -499 27 -725 -27 -91 -115 -277 -152 -324 -167
-210 -358 -340 -591 -403 -89 -24 -118 -27 -265 -27 -147 0 -176 3 -265 27
-233 63 -424 193 -591 403 -37 47 -125 233 -152 324 -69 226 -58 512 27 725
47 116 95 189 191 289 l85 88 0 3657 c0 2960 -2 3660 -13 3679 -15 26 -23 26
-192 6z"/>
<path d="M7612 11720 c-31 -14 -47 -29 -57 -54 -13 -31 -15 -512 -15 -3739 0
-2592 -3 -3713 -11 -3735 -6 -17 -34 -49 -68 -76 -138 -107 -250 -277 -286
-431 -19 -77 -19 -236 -1 -305 19 -74 69 -182 103 -225 42 -53 157 -143 219
-170 82 -36 194 -65 254 -65 60 0 172 29 254 65 62 27 177 117 219 170 34 43
84 151 103 225 18 69 18 228 -1 305 -36 154 -148 324 -286 431 -34 27 -62 59
-68 76 -8 22 -11 1143 -11 3735 0 3227 -2 3708 -15 3739 -22 53 -76 74 -195
74 -73 0 -105 -5 -138 -20z"/>
</g>
</svg>
