<svg version="1.1" xmlns="http://www.w3.org/2000/svg" viewBox="0 0 200.000000 200.000000">
<g transform="translate(0.000000,200.000000) scale(0.100000,-0.100000)">
<path d="M427 1844 c-16 -17 -5 -52 33 -99 22 -27 44 -60 50 -72 5 -13 14 -23
19 -23 5 0 21 -33 36 -72 14 -40 59 -131 100 -203 114 -202 121 -217 105 -254
-16 -40 -26 -39 -40 3 -6 19 -61 116 -122 217 -60 101 -119 200 -130 219 -11
19 -31 53 -44 75 -56 95 -215 205 -268 185 -17 -6 -18 -7 -3 -13 9 -3 14 -13
11 -21 -3 -8 -1 -17 5 -21 6 -3 11 -14 11 -22 0 -14 -4 -13 -20 5 -20 21 -51
30 -49 15 0 -5 24 -26 52 -49 53 -41 112 -123 237 -330 36 -59 75 -134 87
-166 12 -32 29 -75 38 -96 16 -37 21 -47 83 -160 l34 -63 -56 -89 c-31 -50
-56 -93 -56 -96 0 -13 -57 -121 -80 -150 -8 -11 -2 -8 13 6 l28 25 -10 -27
c-8 -22 -5 -68 5 -68 8 0 74 72 74 80 0 6 5 10 11 10 6 0 9 -7 6 -14 -4 -10
-1 -13 8 -10 7 3 34 41 59 84 25 43 49 81 54 84 11 7 67 -114 87 -187 12 -43
54 -185 103 -347 14 -45 14 286 1 376 -9 57 -46 203 -75 292 -13 41 -12 47 10
90 l23 46 30 -80 c17 -43 48 -132 69 -197 l39 -118 8 43 c13 72 56 211 86 283
l29 69 16 -38 c17 -40 15 -50 -40 -236 -32 -110 -45 -235 -42 -405 3 -149 4
-165 15 -130 6 22 32 114 58 205 45 160 112 350 125 350 3 0 32 -43 64 -95 32
-52 64 -95 73 -95 12 0 12 2 -1 16 -9 8 -16 25 -16 37 0 24 -1 24 59 -55 40
-53 74 -78 88 -64 4 3 12 -3 20 -14 19 -27 33 -25 33 3 0 13 -22 49 -52 85
-29 34 -62 83 -72 110 -10 26 -43 86 -72 133 -30 47 -54 94 -54 103 0 16 40
96 60 121 5 6 29 63 54 128 41 106 93 202 225 416 25 40 75 100 110 132 48 45
59 59 44 59 -11 0 -26 -7 -33 -15 -7 -8 -17 -12 -22 -9 -14 9 20 42 77 76 28
17 41 27 30 23 -11 -4 -34 -11 -52 -16 -18 -6 -42 -22 -53 -36 -25 -32 -55
-42 -40 -13 6 11 18 24 28 29 26 16 -1 13 -42 -4 -20 -9 -35 -19 -32 -23 2 -4
-5 -9 -16 -9 -11 -1 -28 -10 -37 -20 -10 -10 -31 -30 -49 -44 -17 -15 -74
-103 -128 -195 -53 -93 -100 -173 -104 -179 -10 -13 -44 -73 -91 -163 l-39
-73 -16 35 -17 34 98 194 c53 106 107 203 118 216 14 15 21 34 19 51 -2 16 3
33 12 41 9 7 16 17 16 22 0 5 14 23 30 40 17 16 30 35 30 41 -1 8 -5 6 -13 -3
-20 -25 -54 -24 -61 2 -9 34 -8 36 17 40 12 2 20 7 17 13 -3 5 -9 8 -15 6 -5
-2 -20 -5 -33 -6 -29 -2 -176 -140 -200 -189 -6 -11 -33 -69 -61 -127 -27 -59
-54 -110 -59 -113 -20 -12 -79 189 -93 314 -12 103 -19 127 -19 63 0 -58 -27
-195 -55 -278 -32 -95 -48 -135 -55 -135 -6 0 -64 99 -155 265 -45 82 -49 88
-71 91 -13 2 -13 0 1 -17 18 -19 29 -69 16 -69 -5 0 -27 29 -50 65 -47 72
-101 121 -113 102 -5 -8 -16 -1 -35 21 -15 19 -31 30 -36 26z m1203 -168 c0
-2 -8 -10 -17 -17 -16 -13 -17 -12 -4 4 13 16 21 21 21 13z m-606 -396 c15
-52 15 -60 -6 -143 l-21 -89 -32 89 c-31 86 -32 89 -18 143 8 30 19 78 26 105
l11 50 12 -50 c7 -27 20 -75 28 -105z m7 -393 c-10 -9 -11 -8 -5 6 3 10 9 15
12 12 3 -3 0 -11 -7 -18z m62 -337 c-3 -12 -8 -19 -11 -16 -5 6 5 36 12 36 2
0 2 -9 -1 -20z"/>
<path d="M446 490 c-24 -37 -25 -50 -1 -32 12 8 37 63 32 68 -2 3 -16 -14 -31
-36z"/>
</g>
</svg>
